<svg width="24" height="24" viewBox="0 0 24 24" fill="none" xmlns="http://www.w3.org/2000/svg">
<path d="M4 8C4 5.87827 4.84285 3.84344 6.34315 2.34315C7.84344 0.842855 9.87827 0 12 0C14.1217 0 16.1566 0.842855 17.6569 2.34315C19.1571 3.84344 20 5.87827 20 8V11.7887C20 12.3809 20.1753 12.96 20.5038 13.4528L21.4962 14.9412C21.8247 15.434 22 16.0131 22 16.6053V17C22 18.6569 20.6569 20 19 20H18.7799C17.3809 20 16.2356 21.0665 15.2758 22.0843C15.1304 22.2384 14.9736 22.3828 14.8064 22.5162C14.0091 23.1515 13.0199 23.4975 12.0005 23.4975C10.9811 23.4975 9.99185 23.1515 9.19465 22.5162C9.02736 22.3828 8.8706 22.2384 8.72522 22.0843C7.76541 21.0665 6.62007 20 5.22111 20H5C3.34315 20 2 18.6569 2 17V16.6053C2 16.0131 2.17531 15.434 2.50385 14.9412L3.49615 13.4528C3.82469 12.96 4 12.3809 4 11.7887V8ZM11.158 20C10.4736 20 10.0575 20.7177 10.6299 21.0928C11.0371 21.3595 11.5133 21.5016 12 21.5016C12.4867 21.5016 12.9629 21.3595 13.3701 21.0928C13.9425 20.7177 13.5264 20 12.842 20H11.158ZM12 2C10.4087 2 8.88258 2.63214 7.75736 3.75736C6.63214 4.88258 6 6.4087 6 8V12.3947C6 12.9869 5.82469 13.566 5.49615 14.0588L4.21877 15.9748C4.07612 16.1888 4 16.4402 4 16.6974C4 17.4168 4.5832 18 5.3026 18H18.6974C19.4168 18 20 17.4168 20 16.6974C20 16.4402 19.9239 16.1888 19.7812 15.9748L18.5038 14.0588C18.1753 13.566 18 12.9869 18 12.3947V8C18 6.4087 17.3679 4.88258 16.2426 3.75736C15.1174 2.63214 13.5913 2 12 2Z" fill="#8247FF"/>
</svg>
