<svg width="18" height="20" viewBox="0 0 18 20" fill="none" xmlns="http://www.w3.org/2000/svg">
<path d="M16.4148 4.09128L12.9443 0.620812C12.7479 0.423403 12.5144 0.266891 12.2571 0.160332C11.9999 0.0537717 11.7241 -0.000720651 11.4456 7.19612e-06H4.94899C4.38668 0.000540275 3.84756 0.224153 3.44994 0.621765C3.05233 1.01938 2.82872 1.5585 2.82819 2.12081V2.83222H2.11678C1.55559 2.83293 1.01759 3.05618 0.620775 3.453C0.223956 3.84981 0.000710363 4.38781 0 4.949V17.8832C0.000710363 18.4444 0.223956 18.9824 0.620775 19.3792C1.01759 19.776 1.55559 19.9993 2.11678 20H12.0913C12.6525 19.9993 13.1905 19.776 13.5873 19.3792C13.9841 18.9824 14.2073 18.4444 14.208 17.8832V17.1698H14.9154C15.4772 17.1691 16.0158 16.9457 16.4131 16.5485C16.8104 16.1513 17.034 15.6128 17.0349 15.051V5.5886C17.0349 5.03155 16.8087 4.48524 16.4148 4.09128ZM14.9705 4.35571H13.5839C13.0846 4.35571 12.6778 3.94967 12.6778 3.44967V2.06309L14.9705 4.35571ZM13 17.8832C13 18.3846 12.5926 18.7919 12.0913 18.7919H2.11678C1.87588 18.7916 1.64495 18.6957 1.4746 18.5254C1.30426 18.3551 1.20841 18.1241 1.20805 17.8832V4.949C1.20805 4.44766 1.61544 4.04027 2.11678 4.04027H2.82886V15.0517C2.82957 15.6133 3.05305 16.1518 3.45026 16.5489C3.84748 16.946 4.38599 17.1693 4.94765 17.1698H13V17.8832ZM15.8268 15.051C15.8268 15.5537 15.4188 15.9617 14.9161 15.9617H4.94765C4.70634 15.9616 4.47496 15.8656 4.30433 15.695C4.1337 15.5244 4.03776 15.293 4.03758 15.0517V2.12081C4.03758 1.61746 4.44631 1.20806 4.94966 1.20806H11.4463C11.4544 1.20806 11.4617 1.21276 11.4698 1.21276V3.44967C11.4703 4.0102 11.6932 4.54762 12.0896 4.94397C12.4859 5.34032 13.0234 5.56323 13.5839 5.56376H15.8215C15.8215 5.57249 15.8262 5.57987 15.8262 5.5886V15.051H15.8268Z" fill="#B0B0B0"/>
<path d="M6.65743 8.50688H9.26548C9.42568 8.50688 9.57932 8.44324 9.6926 8.32997C9.80587 8.21669 9.86951 8.06305 9.86951 7.90285C9.86951 7.74266 9.80587 7.58902 9.6926 7.47574C9.57932 7.36247 9.42568 7.29883 9.26548 7.29883H6.65743C6.49723 7.29883 6.3436 7.36247 6.23032 7.47574C6.11704 7.58902 6.05341 7.74266 6.05341 7.90285C6.05341 8.06305 6.11704 8.21669 6.23032 8.32997C6.3436 8.44324 6.49723 8.50688 6.65743 8.50688ZM13.2071 10.1599H6.65676C6.49656 10.1599 6.34293 10.2235 6.22965 10.3368C6.11637 10.4501 6.05273 10.6037 6.05273 10.7639C6.05273 10.9241 6.11637 11.0778 6.22965 11.191C6.34293 11.3043 6.49656 11.368 6.65676 11.368H13.2071C13.3673 11.368 13.5209 11.3043 13.6342 11.191C13.7475 11.0778 13.8111 10.9241 13.8111 10.7639C13.8111 10.6037 13.7475 10.4501 13.6342 10.3368C13.5209 10.2235 13.3673 10.1599 13.2071 10.1599ZM11.8313 13.021H6.65743C6.49723 13.021 6.3436 13.0846 6.23032 13.1979C6.11704 13.3112 6.05341 13.4648 6.05341 13.625C6.05341 13.7852 6.11704 13.9388 6.23032 14.0521C6.3436 14.1654 6.49723 14.229 6.65743 14.229H11.8313C11.9915 14.229 12.1451 14.1654 12.2584 14.0521C12.3716 13.9388 12.4353 13.7852 12.4353 13.625C12.4353 13.4648 12.3716 13.3112 12.2584 13.1979C12.1451 13.0846 11.9915 13.021 11.8313 13.021Z" fill="#B0B0B0"/>
</svg>
