<svg width="28" height="14" viewBox="0 0 28 14" fill="none" xmlns="http://www.w3.org/2000/svg">
<path d="M2.06434 7.115V8.9862C2.06434 9.2951 2.07898 9.48816 2.10827 9.56538C2.14021 9.6426 2.2001 9.71092 2.28795 9.77032C2.37845 9.82675 2.49957 9.85497 2.6513 9.85497H2.83099V10.0198H0V9.85497H0.179682C0.336737 9.85497 0.463179 9.82378 0.55901 9.76141C0.62822 9.71983 0.681459 9.64854 0.718727 9.54756C0.748008 9.47627 0.762649 9.28916 0.762649 8.9862V5.01213C0.762649 4.70323 0.748008 4.51017 0.718727 4.43295C0.689445 4.35573 0.629551 4.2889 0.539045 4.23246C0.451201 4.17306 0.331413 4.14336 0.179682 4.14336H0V3.97852H2.83099V4.14336H2.6513C2.49425 4.14336 2.36781 4.17455 2.27198 4.23692C2.20276 4.2785 2.14819 4.34979 2.10827 4.45077C2.07898 4.52205 2.06434 4.70917 2.06434 5.01213V6.72294H3.97695V5.01213C3.97695 4.70323 3.96231 4.51017 3.93303 4.43295C3.90375 4.35573 3.84386 4.2889 3.75335 4.23246C3.66284 4.17306 3.54173 4.14336 3.38999 4.14336H3.21431V3.97852H6.0413V4.14336H5.86561C5.70589 4.14336 5.57945 4.17455 5.48628 4.23692C5.41707 4.2785 5.3625 4.34979 5.32257 4.45077C5.29329 4.52205 5.27865 4.70917 5.27865 5.01213V8.9862C5.27865 9.2951 5.29329 9.48816 5.32257 9.56538C5.35185 9.6426 5.41175 9.71092 5.50225 9.77032C5.59276 9.82675 5.71388 9.85497 5.86561 9.85497H6.0413V10.0198H3.21431V9.85497H3.38999C3.54971 9.85497 3.67615 9.82378 3.76932 9.76141C3.83853 9.71983 3.8931 9.64854 3.93303 9.54756C3.96231 9.47627 3.97695 9.28916 3.97695 8.9862V7.115H2.06434Z" fill="#202020"/>
<path d="M11.3807 7.26844V11.6047C11.3807 12.3206 11.4186 12.7679 11.4943 12.9469C11.5769 13.1259 11.7318 13.2842 11.9589 13.4218C12.1929 13.5526 12.5061 13.618 12.8984 13.618H13.363V14H6.04297V13.618H6.50757C6.91367 13.618 7.24061 13.5457 7.4884 13.4012C7.66735 13.3048 7.80501 13.1396 7.90138 12.9056C7.97709 12.7404 8.01495 12.3068 8.01495 11.6047V2.39528C8.01495 1.67945 7.97709 1.23206 7.90138 1.0531C7.82566 0.87414 7.6708 0.719272 7.43677 0.588496C7.20964 0.450836 6.8999 0.382006 6.50757 0.382006H6.04297V0H13.363V0.382006H12.8984C12.4923 0.382006 12.1654 0.454277 11.9176 0.59882C11.7386 0.695182 11.5975 0.860374 11.4943 1.0944C11.4186 1.25959 11.3807 1.69322 11.3807 2.39528V6.35988H16.3262V2.39528C16.3262 1.67945 16.2883 1.23206 16.2126 1.0531C16.1369 0.87414 15.982 0.719272 15.748 0.588496C15.514 0.450836 15.2008 0.382006 14.8085 0.382006H14.3542V0H21.6639V0.382006H21.2096C20.7967 0.382006 20.4697 0.454277 20.2288 0.59882C20.0499 0.695182 19.9088 0.860374 19.8055 1.0944C19.7298 1.25959 19.6919 1.69322 19.6919 2.39528V11.6047C19.6919 12.3206 19.7298 12.7679 19.8055 12.9469C19.8812 13.1259 20.0361 13.2842 20.2701 13.4218C20.5041 13.5526 20.8173 13.618 21.2096 13.618H21.6639V14H14.3542V13.618H14.8085C15.2214 13.618 15.5484 13.5457 15.7893 13.4012C15.9682 13.3048 16.1093 13.1396 16.2126 12.9056C16.2883 12.7404 16.3262 12.3068 16.3262 11.6047V7.26844H11.3807Z" fill="#202020"/>
</svg>
