<svg width="28" height="14" viewBox="0 0 28 14" fill="none" xmlns="http://www.w3.org/2000/svg">
<path d="M2.06434 7.11598V8.98718C2.06434 9.29607 2.07898 9.48913 2.10827 9.56636C2.14021 9.64358 2.2001 9.71189 2.28795 9.7713C2.37845 9.82773 2.49957 9.85595 2.6513 9.85595H2.83099V10.0208H0V9.85595H0.179682C0.336737 9.85595 0.463179 9.82476 0.55901 9.76239C0.62822 9.7208 0.681459 9.64952 0.718727 9.54854C0.748008 9.47725 0.762649 9.29013 0.762649 8.98718V5.01311C0.762649 4.70421 0.748008 4.51115 0.718727 4.43393C0.689445 4.3567 0.629551 4.28987 0.539045 4.23344C0.451201 4.17404 0.331413 4.14434 0.179682 4.14434H0V3.97949H2.83099V4.14434H2.6513C2.49425 4.14434 2.36781 4.17552 2.27198 4.2379C2.20276 4.27948 2.14819 4.35076 2.10827 4.45175C2.07898 4.52303 2.06434 4.71015 2.06434 5.01311V6.72392H3.97695V5.01311C3.97695 4.70421 3.96231 4.51115 3.93303 4.43393C3.90375 4.3567 3.84386 4.28987 3.75335 4.23344C3.66284 4.17404 3.54173 4.14434 3.38999 4.14434H3.21431V3.97949H6.0413V4.14434H5.86561C5.70589 4.14434 5.57945 4.17552 5.48628 4.2379C5.41707 4.27948 5.3625 4.35076 5.32257 4.45175C5.29329 4.52303 5.27865 4.71015 5.27865 5.01311V8.98718C5.27865 9.29607 5.29329 9.48913 5.32257 9.56636C5.35185 9.64358 5.41175 9.71189 5.50225 9.7713C5.59276 9.82773 5.71388 9.85595 5.86561 9.85595H6.0413V10.0208H3.21431V9.85595H3.38999C3.54971 9.85595 3.67615 9.82476 3.76932 9.76239C3.83853 9.7208 3.8931 9.64952 3.93303 9.54854C3.96231 9.47725 3.97695 9.29013 3.97695 8.98718V7.11598H2.06434Z" fill="#202020"/>
<path d="M11.3788 7.26844V11.6047C11.3788 12.3206 11.4166 12.7679 11.4923 12.9469C11.5749 13.1259 11.7298 13.2842 11.9569 13.4218C12.191 13.5526 12.5041 13.618 12.8965 13.618H13.3611V14H6.04102V13.618H6.50562C6.91171 13.618 7.23866 13.5457 7.48644 13.4012C7.6654 13.3048 7.80306 13.1396 7.89942 12.9056C7.97514 12.7404 8.01299 12.3068 8.01299 11.6047V2.39528C8.01299 1.67945 7.97514 1.23206 7.89942 1.0531C7.82371 0.87414 7.66884 0.719272 7.43482 0.588496C7.20768 0.450836 6.89795 0.382006 6.50562 0.382006H6.04102V0H13.3611V0.382006H12.8965C12.4904 0.382006 12.1634 0.454277 11.9156 0.59882C11.7367 0.695182 11.5956 0.860374 11.4923 1.0944C11.4166 1.25959 11.3788 1.69322 11.3788 2.39528V6.35988H16.3242V2.39528C16.3242 1.67945 16.2863 1.23206 16.2106 1.0531C16.1349 0.87414 15.9801 0.719272 15.746 0.588496C15.512 0.450836 15.1988 0.382006 14.8065 0.382006H14.3522V0H21.662V0.382006H21.2077C20.7947 0.382006 20.4678 0.454277 20.2269 0.59882C20.0479 0.695182 19.9068 0.860374 19.8036 1.0944C19.7278 1.25959 19.69 1.69322 19.69 2.39528V11.6047C19.69 12.3206 19.7278 12.7679 19.8036 12.9469C19.8793 13.1259 20.0341 13.2842 20.2682 13.4218C20.5022 13.5526 20.8154 13.618 21.2077 13.618H21.662V14H14.3522V13.618H14.8065C15.2195 13.618 15.5464 13.5457 15.7873 13.4012C15.9663 13.3048 16.1074 13.1396 16.2106 12.9056C16.2863 12.7404 16.3242 12.3068 16.3242 11.6047V7.26844H11.3788Z" fill="#202020"/>
</svg>
