<svg width="12" height="14" viewBox="0 0 12 14" fill="none" xmlns="http://www.w3.org/2000/svg">
<path d="M5.16901 7.65295V11.5314C5.16901 12.2878 5.2137 12.7657 5.3031 12.9651C5.39937 13.1577 5.56441 13.3124 5.79822 13.4293C6.0389 13.5462 6.47557 13.6047 7.10822 13.6047V13.9863H0.0012207V13.6047C0.647624 13.6047 1.08429 13.5462 1.31122 13.4293C1.54502 13.3055 1.70662 13.1474 1.79602 12.9548C1.89229 12.7623 1.94043 12.2878 1.94043 11.5314V2.45422C1.94043 1.69779 1.89229 1.22331 1.79602 1.03076C1.70662 0.83134 1.54502 0.673177 1.31122 0.556274C1.07741 0.439372 0.640747 0.38092 0.0012207 0.38092V-0.000732422H6.09735C8.10533 -0.000732422 9.54598 0.356852 10.4193 1.07202C11.2926 1.78719 11.7293 2.68115 11.7293 3.75391C11.7293 4.66162 11.4474 5.43868 10.8835 6.08508C10.3196 6.73149 9.54254 7.17159 8.55231 7.4054C7.88527 7.57043 6.75751 7.65295 5.16901 7.65295ZM5.16901 0.803833V6.84839C5.39594 6.86214 5.56785 6.86902 5.68475 6.86902C6.5237 6.86902 7.1701 6.62146 7.62396 6.12634C8.07782 5.62435 8.30475 4.85073 8.30475 3.80548C8.30475 2.76711 8.07782 2.00724 7.62396 1.52588C7.1701 1.04451 6.49276 0.803833 5.59192 0.803833H5.16901Z" fill="black"/>
</svg>
