<svg width="12" height="14" viewBox="0 0 12 14" fill="none" xmlns="http://www.w3.org/2000/svg">
<path d="M5.16803 7.65393V11.5323C5.16803 12.2888 5.21273 12.7667 5.30212 12.9661C5.3984 13.1587 5.56344 13.3134 5.79724 13.4303C6.03792 13.5472 6.47459 13.6057 7.10724 13.6057V13.9873H0.000244141V13.6057C0.646647 13.6057 1.08331 13.5472 1.31024 13.4303C1.54405 13.3065 1.70565 13.1484 1.79504 12.9558C1.89132 12.7633 1.93945 12.2888 1.93945 11.5323V2.4552C1.93945 1.69877 1.89132 1.22428 1.79504 1.03174C1.70565 0.832316 1.54405 0.674154 1.31024 0.557251C1.07644 0.440348 0.639771 0.381897 0.000244141 0.381897V0.000244141H6.09637C8.10435 0.000244141 9.545 0.357829 10.4183 1.073C11.2917 1.78817 11.7283 2.68213 11.7283 3.75488C11.7283 4.6626 11.4464 5.43966 10.8825 6.08606C10.3186 6.73246 9.54156 7.17257 8.55133 7.40637C7.8843 7.57141 6.75653 7.65393 5.16803 7.65393ZM5.16803 0.80481V6.84937C5.39496 6.86312 5.56687 6.87 5.68378 6.87C6.52273 6.87 7.16913 6.62244 7.62299 6.12732C8.07684 5.62533 8.30377 4.8517 8.30377 3.80646C8.30377 2.76809 8.07684 2.00822 7.62299 1.52686C7.16913 1.04549 6.49178 0.80481 5.59094 0.80481H5.16803Z" fill="black"/>
</svg>
