<svg width="32" height="32" viewBox="0 0 32 32" fill="none" xmlns="http://www.w3.org/2000/svg">
<circle cx="16" cy="16" r="16" fill="url(#paint0_linear_917_3412)"/>
<path d="M16 19.333C17.3807 19.333 18.5 18.2137 18.5 16.833C18.5 15.4523 17.3807 14.333 16 14.333C14.6193 14.333 13.5 15.4523 13.5 16.833C13.5 18.2137 14.6193 19.333 16 19.333Z" stroke="white" stroke-width="1.5"/>
<path d="M14.1484 23.5H17.8517C20.4525 23.5 21.7534 23.5 22.6875 22.8875C23.0906 22.6234 23.4377 22.2824 23.7092 21.8842C24.3334 20.9675 24.3334 19.69 24.3334 17.1367C24.3334 14.5825 24.3334 13.3059 23.7092 12.3892C23.4378 11.991 23.0906 11.65 22.6875 11.3859C22.0875 10.9917 21.3359 10.8509 20.185 10.8009C19.6359 10.8009 19.1634 10.3925 19.0559 9.86337C18.9737 9.47576 18.7602 9.1284 18.4516 8.88C18.1429 8.63159 17.7579 8.49738 17.3617 8.50004H14.6384C13.815 8.50004 13.1059 9.07087 12.9442 9.86337C12.8367 10.3925 12.3642 10.8009 11.815 10.8009C10.665 10.8509 9.91335 10.9925 9.31252 11.3859C8.9097 11.6501 8.56283 11.991 8.29169 12.3892C7.66669 13.3059 7.66669 14.5825 7.66669 17.1367C7.66669 19.69 7.66669 20.9667 8.29085 21.8842C8.56085 22.2809 8.90752 22.6217 9.31252 22.8875C10.2467 23.5 11.5475 23.5 14.1484 23.5Z" stroke="white" stroke-width="1.5"/>
<path d="M21.8333 14.333H21" stroke="white" stroke-width="1.5" stroke-linecap="round"/>
<defs>
<linearGradient id="paint0_linear_917_3412" x1="29.3631" y1="-8.16128e-07" x2="0.0011138" y2="29.6283" gradientUnits="userSpaceOnUse">
<stop stop-color="#A941FB"/>
<stop offset="1" stop-color="#7864F0" stop-opacity="0.92"/>
</linearGradient>
</defs>
</svg>
