<svg width="114" height="117" viewBox="0 0 114 117" fill="none" xmlns="http://www.w3.org/2000/svg">
<path d="M57 0.5C88.2041 0.5 113.5 25.7959 113.5 57C113.5 88.2041 88.2041 113.5 57 113.5C25.7959 113.5 0.5 88.2041 0.5 57C0.5 25.7959 25.7959 0.5 57 0.5Z" fill="#F4F4F4" stroke="#EAEAEA"/>
<path d="M70.0367 103.813L45.1475 104.272L45.0454 97.4661L69.9346 97.0074L70.0367 103.813ZM58.004 24.2373L58.6226 65.5292C61.805 66.4112 63.7131 70.0525 62.1682 73.319C60.3231 77.22 54.9257 77.6843 52.4761 74.1529C50.3114 71.0317 51.8723 66.8417 55.2286 65.6544L54.607 24.1564C47.3553 49.5383 37.5238 64.5428 31.1852 69.7185C34.7943 74.1622 47.1138 87.0171 47.2176 94.704L67.681 94.3267C67.5547 86.6404 79.4823 73.3387 82.9563 68.7641C76.5466 63.8863 64.5869 46.5125 58.004 24.2373Z" fill="url(#paint0_linear_960_3445)"/>
<defs>
<linearGradient id="paint0_linear_960_3445" x1="57" y1="10.0005" x2="60" y2="111" gradientUnits="userSpaceOnUse">
<stop stop-color="#CECECE"/>
<stop offset="1" stop-color="#999999" stop-opacity="0"/>
<stop offset="1" stop-color="#F9F9F9" stop-opacity="0"/>
</linearGradient>
</defs>
</svg>
