<svg width="24" height="24" viewBox="0 0 24 24" fill="none" xmlns="http://www.w3.org/2000/svg">
<path d="M22.9789 5.68921C22.2617 4.45265 20.3689 4.17421 17.4945 4.87734C16.1638 3.84837 14.5712 3.21325 12.8976 3.04412C11.2239 2.87498 9.53643 3.17861 8.02674 3.92052C6.51704 4.66243 5.24568 5.81288 4.35708 7.24116C3.46849 8.66945 2.99827 10.3183 2.99986 12.0005C2.99998 12.3863 3.0244 12.7718 3.07298 13.1545C0.477046 15.8442 0.514546 17.438 1.02173 18.3117C1.49986 19.1405 2.49736 19.5005 3.80986 19.5005C4.72113 19.4816 5.62703 19.3557 6.50892 19.1255C7.83981 20.1534 9.43225 20.7876 11.1054 20.9561C12.7786 21.1246 14.4655 20.8206 15.9746 20.0786C17.4837 19.3365 18.7546 18.1863 19.6429 16.7584C20.5311 15.3305 21.0013 13.6821 20.9999 12.0005C21 11.6165 20.9759 11.2329 20.9277 10.852C22.0995 9.63327 22.8795 8.47546 23.1449 7.48452C23.3277 6.79827 23.2724 6.19452 22.9789 5.68921ZM11.9999 4.50046C13.6986 4.50221 15.3465 5.07977 16.6746 6.13886C18.0027 7.19796 18.9326 8.67601 19.3124 10.3317C17.713 11.8373 15.5483 13.3814 13.4933 14.5626C10.9105 16.0448 8.66986 16.9692 6.88298 17.4755C5.78243 16.449 5.01639 15.115 4.6846 13.6471C4.35282 12.1792 4.47065 10.6454 5.02276 9.2454C5.57487 7.8454 6.53568 6.64405 7.78011 5.79775C9.02453 4.95145 10.4949 4.4994 11.9999 4.50046ZM2.31923 17.5589C2.18236 17.3236 2.2583 16.8801 2.52736 16.3401C2.79343 15.8342 3.11714 15.3607 3.49205 14.9292C3.86367 16.0059 4.43631 17.0023 5.17955 17.8655C3.56236 18.1373 2.55361 17.9639 2.31923 17.5589ZM11.9999 19.5005C10.7353 19.5017 9.49122 19.181 8.38486 18.5686C10.4156 17.8504 12.375 16.9446 14.2377 15.863C16.2608 14.7014 18.0514 13.4423 19.4942 12.1992C19.4408 14.1522 18.6281 16.0074 17.2287 17.3707C15.8293 18.734 13.9535 19.498 11.9999 19.5005ZM21.6955 7.0964C21.5361 7.68796 21.1152 8.36484 20.5114 9.07734C20.1408 7.99933 19.568 7.00185 18.8239 6.13827C20.1561 5.91796 21.3899 5.93484 21.6833 6.44202C21.7677 6.58921 21.7724 6.80952 21.6955 7.0964Z" fill="#B0B0B0"/>
</svg>
