<svg width="24" height="24" viewBox="0 0 24 24" fill="none" xmlns="http://www.w3.org/2000/svg">
<path d="M2 12C2 17.3128 6.1648 21.6694 11.4012 21.98C11.5091 21.9919 11.617 22 11.7274 22C11.7599 22 11.7923 21.9969 11.8247 21.9956C11.8827 21.9969 11.9407 22 12 22C17.514 22 22 17.514 22 12C22 6.48597 17.514 2 12 2C11.9414 2 11.8827 2.00375 11.8247 2.005C11.7923 2.00375 11.7599 2 11.7274 2C11.6176 2 11.5097 2.0075 11.4012 2.02C6.1648 2.3306 2 6.68721 2 12ZM3.86065 8.78083C4.20434 8.88082 5.06762 9.09768 6.59082 9.27704C6.46482 10.1401 6.39558 11.0519 6.39558 12C6.39558 12.7475 6.43862 13.4712 6.51846 14.168C4.58857 14.3992 3.74277 14.6898 3.68663 14.7098L3.91866 15.366C3.48516 14.3292 3.24501 13.1924 3.24501 12C3.24501 10.8638 3.46457 9.77826 3.86065 8.78083ZM16.4155 12C16.4155 12.6993 16.3694 13.3824 16.2846 14.0392C15.2735 13.9599 14.0634 13.9005 12.6425 13.8874V9.55078C14.0266 9.53765 15.2086 9.48141 16.2035 9.40454C16.3407 10.2289 16.4155 11.1007 16.4155 12ZM11.3968 20.667C9.86739 20.2226 8.55751 18.0952 7.97118 15.2748C8.9143 15.1998 10.0495 15.1442 11.3968 15.1317V20.667ZM12.6418 20.652V15.1323C13.9742 15.1454 15.115 15.2004 16.0737 15.2735C15.4749 18.059 14.1551 20.1707 12.6418 20.652ZM12.6418 8.30461V3.34929C14.0534 3.79801 15.2965 5.66477 15.9434 8.17336C15.0127 8.24211 13.9137 8.29148 12.6418 8.30461ZM11.3968 3.33304V8.30461C10.1113 8.29211 9.01784 8.24086 8.09843 8.16899C8.73403 5.62727 9.96969 3.74677 11.3968 3.33304ZM11.3968 9.55015V13.8868C9.96782 13.8999 8.76584 13.9605 7.76784 14.043C7.68613 13.3849 7.64122 12.7012 7.64122 12.0006C7.64122 11.0994 7.71357 10.2257 7.84643 9.40079C8.82884 9.48078 10.0059 9.53703 11.3968 9.55015ZM4.1482 15.8685C4.33658 15.8098 5.12375 15.5854 6.70185 15.3992C7.05364 17.2728 7.68987 18.8746 8.51697 20.0314C6.61577 19.2033 5.06512 17.7209 4.1482 15.8685ZM14.9859 20.2301C16.0039 19.0596 16.8341 17.3753 17.2882 15.3842C18.701 15.5373 19.548 15.7179 19.8867 15.7998C18.8981 17.8434 17.1372 19.4477 14.9859 20.2301ZM20.3496 14.633C20.1094 14.568 19.2012 14.3411 17.5121 14.1542C17.6088 13.4624 17.6618 12.7418 17.6618 12C17.6618 11.0569 17.577 10.1501 17.4229 9.29142C18.8731 9.13455 19.7651 8.94644 20.1649 8.8502C20.5435 9.82889 20.7537 10.8901 20.7537 12.0006C20.7537 12.9174 20.6122 13.8018 20.3496 14.633ZM19.6198 7.69652C19.1663 7.79276 18.3542 7.94025 17.1522 8.06587C16.6788 6.31411 15.9091 4.8317 14.9859 3.76989C16.957 4.48734 18.5974 5.89413 19.6198 7.69652ZM8.51759 3.96988C7.77221 5.01044 7.18276 6.4116 6.81599 8.04775C5.57972 7.90588 4.80377 7.73902 4.41268 7.64027C5.3483 6.01787 6.78792 4.72233 8.51759 3.96988Z" fill="#B0B0B0"/>
</svg>
