<svg width="24" height="24" viewBox="0 0 24 24" fill="none" xmlns="http://www.w3.org/2000/svg">
<path d="M12.5608 4.53139C12.4043 4.40316 12.2055 4.33274 12 4.33274C11.7945 4.33274 11.5957 4.40316 11.4392 4.53139L4.68923 10.0574C4.59366 10.1357 4.51691 10.2331 4.46431 10.3428C4.41171 10.4525 4.38452 10.5719 4.38462 10.6928V19.3331C4.38462 19.4216 4.42109 19.5063 4.486 19.5689C4.55092 19.6314 4.63896 19.6665 4.73077 19.6665H8.19231C8.28411 19.6665 8.37216 19.6314 8.43708 19.5689C8.50199 19.5063 8.53846 19.4216 8.53846 19.3331V14.6659C8.53846 14.2238 8.72081 13.7999 9.04539 13.4873C9.36997 13.1747 9.8102 12.9991 10.2692 12.9991H13.7335C13.9608 12.9991 14.1859 13.0422 14.3959 13.1259C14.6059 13.2097 14.7967 13.3325 14.9574 13.4873C15.1181 13.6421 15.2456 13.8258 15.3326 14.028C15.4195 14.2303 15.4643 14.447 15.4643 14.6659V19.3331C15.4643 19.4216 15.5008 19.5063 15.5657 19.5689C15.6306 19.6314 15.7187 19.6665 15.8105 19.6665H19.2692C19.361 19.6665 19.4491 19.6314 19.514 19.5689C19.5789 19.5063 19.6154 19.4216 19.6154 19.3331V10.6921C19.6154 10.5714 19.5881 10.4521 19.5355 10.3425C19.4829 10.2329 19.4063 10.1356 19.3108 10.0574L12.5608 4.53139ZM10.5427 3.51594C10.9495 3.18288 11.4661 3 12 3C12.5339 3 13.0505 3.18288 13.4573 3.51594L20.2073 9.04126C20.4558 9.24467 20.6553 9.49766 20.7922 9.78271C20.9291 10.0678 21 10.3781 21 10.6921V19.3331C21 19.7752 20.8177 20.1992 20.4931 20.5118C20.1685 20.8244 19.7283 21 19.2692 21H15.8105C15.3514 21 14.9112 20.8244 14.5866 20.5118C14.262 20.1992 14.0797 19.7752 14.0797 19.3331V14.6659C14.0797 14.5775 14.0432 14.4927 13.9783 14.4302C13.9134 14.3677 13.8253 14.3325 13.7335 14.3325H10.2692C10.1774 14.3325 10.0894 14.3677 10.0245 14.4302C9.95955 14.4927 9.92308 14.5775 9.92308 14.6659V19.3331C9.92308 19.7752 9.74073 20.1992 9.41615 20.5118C9.09156 20.8244 8.65134 21 8.19231 21H4.73077C4.27174 21 3.83151 20.8244 3.50693 20.5118C3.18235 20.1992 3 19.7752 3 19.3331V10.6921C3.00002 10.3781 3.07092 10.0678 3.20779 9.78271C3.34467 9.49766 3.54424 9.24467 3.79269 9.04126L10.5427 3.51594Z" fill="#B0B0B0"/>
</svg>
