<svg width="24" height="24" viewBox="0 0 24 24" fill="none" xmlns="http://www.w3.org/2000/svg">
<path d="M22.9789 5.68927C22.2617 4.45271 20.3689 4.17427 17.4945 4.8774C16.1638 3.84844 14.5712 3.21331 12.8976 3.04418C11.2239 2.87504 9.53643 3.17868 8.02674 3.92058C6.51704 4.66249 5.24568 5.81294 4.35708 7.24122C3.46849 8.66951 2.99827 10.3184 2.99986 12.0005C2.99998 12.3864 3.0244 12.7718 3.07298 13.1546C0.477046 15.8443 0.514546 17.438 1.02173 18.3118C1.49986 19.1405 2.49736 19.5005 3.80986 19.5005C4.72113 19.4817 5.62703 19.3558 6.50892 19.1255C7.83981 20.1535 9.43225 20.7877 11.1054 20.9562C12.7786 21.1246 14.4655 20.8206 15.9746 20.0786C17.4837 19.3366 18.7546 18.1864 19.6429 16.7584C20.5311 15.3305 21.0013 13.6822 20.9999 12.0005C21 11.6166 20.9759 11.233 20.9277 10.8521C22.0995 9.63333 22.8795 8.47552 23.1449 7.48458C23.3277 6.79833 23.2724 6.19458 22.9789 5.68927ZM11.9999 4.50052C13.6986 4.50227 15.3465 5.07983 16.6746 6.13892C18.0027 7.19802 18.9326 8.67607 19.3124 10.3318C17.713 11.8374 15.5483 13.3815 13.4933 14.5627C10.9105 16.0449 8.66986 16.9693 6.88298 17.4755C5.78243 16.4491 5.01639 15.1151 4.6846 13.6472C4.35282 12.1793 4.47065 10.6455 5.02276 9.24546C5.57487 7.84546 6.53568 6.64411 7.78011 5.79781C9.02453 4.95151 10.4949 4.49946 11.9999 4.50052ZM2.31923 17.559C2.18236 17.3236 2.2583 16.8802 2.52736 16.3402C2.79343 15.8343 3.11714 15.3608 3.49205 14.9293C3.86367 16.006 4.43631 17.0024 5.17955 17.8655C3.56236 18.1374 2.55361 17.964 2.31923 17.559ZM11.9999 19.5005C10.7353 19.5018 9.49122 19.1811 8.38486 18.5686C10.4156 17.8504 12.375 16.9447 14.2377 15.863C16.2608 14.7015 18.0514 13.4424 19.4942 12.1993C19.4408 14.1522 18.6281 16.0074 17.2287 17.3707C15.8293 18.7341 13.9535 19.4981 11.9999 19.5005ZM21.6955 7.09646C21.5361 7.68802 21.1152 8.3649 20.5114 9.0774C20.1408 7.99939 19.568 7.00191 18.8239 6.13833C20.1561 5.91802 21.3899 5.9349 21.6833 6.44208C21.7677 6.58927 21.7724 6.80958 21.6955 7.09646Z" fill="#B0B0B0"/>
</svg>
