<svg width="24" height="24" viewBox="0 0 24 24" fill="none" xmlns="http://www.w3.org/2000/svg">
<path d="M4.51717 15.4932C4.23725 15.7598 4.22651 16.2029 4.49317 16.4828C4.75984 16.7627 5.20292 16.7735 5.48283 16.5068L4.51717 15.4932ZM8.95652 12.2308L9.43935 11.7239L8.95652 11.264L8.47369 11.7239L8.95652 12.2308ZM11.7826 14.9231L11.2998 15.4299L11.7945 15.9012L12.2776 15.418L11.7826 14.9231ZM5.48283 16.5068L9.43935 12.7376L8.47369 11.7239L4.51717 15.4932L5.48283 16.5068ZM8.47369 12.7376L11.2998 15.4299L12.2654 14.4162L9.43935 11.7239L8.47369 12.7376ZM12.2776 15.418L19.7007 7.99497L18.7107 7.00503L11.2876 14.4281L12.2776 15.418Z" fill="#4A4A4A"/>
<path d="M15 7H20V12" stroke="#4A4A4A" stroke-width="1.4" stroke-linecap="round"/>
</svg>
