<svg width="24" height="24" viewBox="0 0 24 24" fill="none" xmlns="http://www.w3.org/2000/svg">
<mask id="mask0_7009_7538" style="mask-type:alpha" maskUnits="userSpaceOnUse" x="0" y="0" width="24" height="24">
<rect width="24" height="24" fill="#D9D9D9"/>
</mask>
<g mask="url(#mask0_7009_7538)">
<path d="M5.30775 20.5C4.80258 20.5 4.375 20.325 4.025 19.975C3.675 19.625 3.5 19.1974 3.5 18.6922V6.30773C3.5 5.80257 3.675 5.37498 4.025 5.02498C4.375 4.67498 4.80258 4.49998 5.30775 4.49998H6.69225V2.38474H8.23075V4.49998H15.8077V2.38474H17.3077V4.49998H18.6923C19.1974 4.49998 19.625 4.67498 19.975 5.02498C20.325 5.37498 20.5 5.80257 20.5 6.30773V18.6922C20.5 19.1974 20.325 19.625 19.975 19.975C19.625 20.325 19.1974 20.5 18.6923 20.5H5.30775ZM5.30775 19H18.6923C18.7692 19 18.8398 18.9679 18.9038 18.9037C18.9679 18.8397 19 18.7692 19 18.6922V10.3077H5V18.6922C5 18.7692 5.03208 18.8397 5.09625 18.9037C5.16025 18.9679 5.23075 19 5.30775 19ZM5 8.80773H19V6.30773C19 6.23073 18.9679 6.16023 18.9038 6.09623C18.8398 6.03207 18.7692 5.99998 18.6923 5.99998H5.30775C5.23075 5.99998 5.16025 6.03207 5.09625 6.09623C5.03208 6.16023 5 6.23073 5 6.30773V8.80773Z" fill="#B0B0B0"/>
</g>
</svg>
