<svg width="21" height="22" viewBox="0 0 21 22" fill="none" xmlns="http://www.w3.org/2000/svg">
<path d="M11.9432 0.902C11.5762 0.75 11.1102 0.75 10.1782 0.75C9.24618 0.75 8.78018 0.75 8.41318 0.902C8.17037 1.00251 7.94974 1.1499 7.76391 1.33572C7.57808 1.52155 7.4307 1.74218 7.33019 1.985C7.23819 2.208 7.20118 2.469 7.18718 2.848C7.18095 3.12199 7.10519 3.3899 6.967 3.62657C6.82881 3.86324 6.63273 4.06091 6.39718 4.201C6.15808 4.33504 5.88883 4.4061 5.61472 4.4075C5.34061 4.4089 5.07064 4.34059 4.83018 4.209C4.49418 4.031 4.25118 3.933 4.01018 3.901C3.4845 3.83187 2.95288 3.97431 2.53219 4.297C2.21819 4.54 1.98418 4.943 1.51818 5.75C1.05218 6.557 0.818185 6.96 0.767185 7.355C0.73282 7.61545 0.750105 7.88012 0.818052 8.13389C0.885998 8.38767 1.00328 8.62556 1.16318 8.834C1.31118 9.026 1.51818 9.187 1.83918 9.389C2.31218 9.686 2.61619 10.192 2.61619 10.75C2.61619 11.308 2.31218 11.814 1.83918 12.11C1.51818 12.313 1.31018 12.474 1.16318 12.666C1.00328 12.8744 0.885998 13.1123 0.818052 13.3661C0.750105 13.6199 0.73282 13.8845 0.767185 14.145C0.819185 14.539 1.05218 14.943 1.51718 15.75C1.98418 16.557 2.21719 16.96 2.53219 17.203C2.74062 17.3629 2.97852 17.4802 3.23229 17.5481C3.48606 17.6161 3.75073 17.6334 4.01119 17.599C4.25119 17.567 4.49418 17.469 4.83018 17.291C5.07064 17.1594 5.34061 17.0911 5.61472 17.0925C5.88883 17.0939 6.15808 17.165 6.39718 17.299C6.88018 17.579 7.16718 18.094 7.18718 18.652C7.20118 19.032 7.23719 19.292 7.33019 19.515C7.4307 19.7578 7.57808 19.9784 7.76391 20.1643C7.94974 20.3501 8.17037 20.4975 8.41318 20.598C8.78018 20.75 9.24618 20.75 10.1782 20.75C11.1102 20.75 11.5762 20.75 11.9432 20.598C12.186 20.4975 12.4066 20.3501 12.5925 20.1643C12.7783 19.9784 12.9257 19.7578 13.0262 19.515C13.1182 19.292 13.1552 19.032 13.1692 18.652C13.1892 18.094 13.4762 17.578 13.9592 17.299C14.1983 17.165 14.4675 17.0939 14.7417 17.0925C15.0158 17.0911 15.2857 17.1594 15.5262 17.291C15.8622 17.469 16.1052 17.567 16.3452 17.599C16.6056 17.6334 16.8703 17.6161 17.1241 17.5481C17.3778 17.4802 17.6157 17.3629 17.8242 17.203C18.1392 16.961 18.3722 16.557 18.8382 15.75C19.3042 14.943 19.5382 14.54 19.5892 14.145C19.6235 13.8845 19.6063 13.6199 19.5383 13.3661C19.4704 13.1123 19.3531 12.8744 19.1932 12.666C19.0452 12.474 18.8382 12.313 18.5172 12.111C18.2829 11.9686 18.0887 11.769 17.9528 11.5309C17.8169 11.2928 17.7437 11.0241 17.7402 10.75C17.7402 10.192 18.0442 9.686 18.5172 9.39C18.8382 9.187 19.0462 9.026 19.1932 8.834C19.3531 8.62556 19.4704 8.38767 19.5383 8.13389C19.6063 7.88012 19.6235 7.61545 19.5892 7.355C19.5372 6.961 19.3042 6.557 18.8392 5.75C18.3722 4.943 18.1392 4.54 17.8242 4.297C17.6157 4.13709 17.3778 4.01981 17.1241 3.95187C16.8703 3.88392 16.6056 3.86664 16.3452 3.901C16.1052 3.933 15.8622 4.031 15.5252 4.209C15.2848 4.34042 15.0151 4.40862 14.7412 4.40722C14.4672 4.40582 14.1982 4.33486 13.9592 4.201C13.7236 4.06091 13.5276 3.86324 13.3894 3.62657C13.2512 3.3899 13.1754 3.12199 13.1692 2.848C13.1552 2.468 13.1192 2.208 13.0262 1.985C12.9257 1.74218 12.7783 1.52155 12.5925 1.33572C12.4066 1.1499 12.186 1.00251 11.9432 0.902Z" stroke="#B0B0B0" stroke-width="1.5"/>
</svg>
