<svg width="98" height="32" viewBox="0 0 98 32" fill="none" xmlns="http://www.w3.org/2000/svg">
<g clip-path="url(#clip0_7009_12222)">
<path d="M37.1985 14.8271C37.185 14.0595 37.4105 13.3062 37.8445 12.6689C38.2939 12.029 38.9098 11.5202 39.6274 11.1961C40.4385 10.826 41.3242 10.6421 42.2178 10.658C43.0953 10.6364 43.9663 10.8111 44.7655 11.169C45.4461 11.4793 46.0201 11.9787 46.4173 12.6058C46.8177 13.2716 47.0195 14.0353 46.9994 14.8091H44.028C44.0376 14.5969 43.9975 14.3854 43.9109 14.1909C43.8242 13.9965 43.6932 13.8244 43.5282 13.6879C43.143 13.3976 42.6653 13.2526 42.1812 13.2791C41.67 13.2533 41.1636 13.3869 40.7336 13.6609C40.558 13.7781 40.4157 13.9377 40.3202 14.1244C40.2247 14.3112 40.1792 14.5189 40.1881 14.7279C40.1796 14.8985 40.2056 15.069 40.2648 15.2296C40.3239 15.3901 40.4149 15.5374 40.5325 15.6627C40.8299 15.9167 41.1947 16.0814 41.5839 16.1377L43.6349 16.5555C44.8539 16.7999 45.758 17.2218 46.3472 17.8209C46.9364 18.4201 47.231 19.2537 47.231 20.3218C47.2493 21.1238 47.0243 21.913 46.5849 22.5882C46.1356 23.253 45.5005 23.7751 44.7564 24.0911C43.8911 24.459 42.9556 24.6384 42.0136 24.6171C41.1041 24.6372 40.2008 24.464 39.3653 24.1091C38.6511 23.804 38.0423 23.3006 37.6129 22.6603C37.1942 22.0056 36.982 21.2429 37.0034 20.469H39.9748C39.9642 20.6855 40.0072 20.9013 40.1002 21.0977C40.1931 21.2941 40.3331 21.4652 40.5081 21.5962C40.9589 21.8884 41.4935 22.0286 42.0319 21.996C42.5923 22.0248 43.1494 21.8955 43.6379 21.6233C43.819 21.5227 43.9693 21.3758 44.0728 21.198C44.1763 21.0203 44.2293 20.8183 44.2261 20.6133C44.2471 20.2973 44.1446 19.9854 43.9396 19.7416C43.6722 19.4974 43.3327 19.3436 42.9705 19.3028L40.883 18.885C39.6639 18.6425 38.7497 18.1816 38.1402 17.5023C37.4923 16.7614 37.1555 15.8046 37.1985 14.8271Z" fill="#1E1E1E"/>
<path d="M52.1831 11.1544V24.38H49.1935V11.1544H52.1831Z" fill="#1E1E1E"/>
<path d="M61.1704 13.4628C60.4432 13.436 59.7242 13.6221 59.1042 13.9978C58.5432 14.3642 58.1059 14.8876 57.8486 15.5007C57.5505 16.2225 57.4063 16.997 57.425 17.7762C57.3983 18.5546 57.5624 19.328 57.9034 20.0305C58.1909 20.6059 58.6519 21.0794 59.223 21.3861C59.8172 21.6942 60.481 21.8483 61.1521 21.834C61.6844 21.8476 62.2149 21.7671 62.7186 21.5966C63.1141 21.4634 63.4715 21.2387 63.7608 20.9413C64.0218 20.6691 64.2231 20.3468 64.352 19.9944C64.4822 19.645 64.5482 19.2756 64.5471 18.9033V17.8303L65.9672 19.237H60.9114V16.652H67.3325V24.383H64.7665L64.5288 22.5434L64.861 22.8169C64.6369 23.1949 64.3232 23.5137 63.9467 23.7457C63.5034 24.0257 63.0179 24.2347 62.5083 24.3649C61.9393 24.5117 61.3532 24.5844 60.7651 24.5813C59.5888 24.6008 58.4295 24.3024 57.4128 23.7187C56.4348 23.1437 55.639 22.3109 55.1149 21.314C54.5412 20.1974 54.2554 18.9585 54.2829 17.707C54.2595 16.4517 54.5583 15.2109 55.1515 14.1C55.7138 13.0669 56.5584 12.2099 57.5895 11.6262C58.6033 11.0931 59.7248 10.7895 60.8724 10.7375C62.02 10.6855 63.165 10.8864 64.224 11.3257C65.0667 11.6978 65.8004 12.2737 66.3573 12.9999C66.9188 13.7391 67.2578 14.6194 67.3356 15.5398H64.1966C64.1383 15.2106 64.0088 14.8976 63.8168 14.6222C63.6249 14.3468 63.375 14.1154 63.0843 13.9437C62.5008 13.6189 61.8403 13.4529 61.1704 13.4628Z" fill="#1E1E1E"/>
<path d="M72.7023 24.383H69.8041V10.9139H72.7023L76.7616 20.9593L80.8393 10.9139H83.774V24.383H80.8758V19.76C80.8758 19.2851 80.8758 18.8913 80.8941 18.5757C80.9124 18.2601 80.9246 17.9746 80.9429 17.7491C80.9612 17.5237 80.9886 17.2652 81.0251 17.0097L78.1269 24.383H75.3841L72.5316 17.0097C72.6207 17.5456 72.6726 18.0869 72.6871 18.6298C72.7053 19.213 72.7145 19.8742 72.7145 20.6137L72.7023 24.383Z" fill="#1E1E1E"/>
<path d="M88.4795 24.383H85.3618L90.2379 10.9139H93.1544L98.0061 24.383H94.8275L93.8645 21.5425H89.4577L88.4795 24.383ZM91.3045 16.1921L90.3263 19.0687H93.0203L92.0359 16.1921C91.9598 15.9607 91.8866 15.7232 91.8135 15.4827C91.7516 15.2857 91.7027 15.0849 91.6672 14.8816C91.6398 15.0379 91.594 15.2363 91.527 15.4827C91.46 15.7292 91.3899 15.9486 91.3045 16.1921Z" fill="#1E1E1E"/>
<path d="M43.2051 25.8199C42.5377 25.1766 39.481 26.1204 38.5606 26.2136C35.7325 26.5292 32.3741 27.1815 29.7014 26.3278C28.7262 26.0273 27.7784 25.366 27.5681 24.347C27.4615 23.845 26.8367 21.8101 27.8912 21.4043C28.519 21.0586 29.2565 20.74 29.933 20.4394C30.7871 20.0956 31.616 19.6939 32.4137 19.2371C33.4255 18.6359 34.4007 17.8394 34.9249 16.7783C35.2096 16.2401 35.3373 15.6345 35.2937 15.0289C35.2418 14.3256 34.3794 13.9138 33.7089 13.9949C33.2427 14.0176 32.7854 14.1289 32.3619 14.3226C31.4842 14.6713 29.0096 16.2704 27.5529 17.7372C27.1232 18.155 25.9042 19.2371 26.0962 18.8734C26.3339 18.4436 27.4767 16.6641 27.7022 16.2433C29.4942 12.9369 31.5909 9.80783 33.584 6.71784C34.8274 4.79111 36.5218 2.06783 36.7626 2.55778C37.9298 4.90834 34.8975 8.40711 35.2632 8.15463C35.3058 8.63556 36.6224 6.99738 37.5153 5.54257C38.1248 4.55365 38.0822 1.97165 37.6738 0.967702C37.5031 0.546886 37.5549 -0.598332 36.2079 0.393589C34.4952 1.65604 30.1433 9.45915 28.9517 11.3979C28.4489 12.2185 27.9552 13.0511 27.4279 13.8627C26.9007 14.6743 24.8558 17.9927 24.3804 18.7171C23.905 19.4415 23.3716 20.2591 22.8566 21.0406C22.2989 21.8702 21.3725 22.306 20.5191 22.7269C19.7201 23.1292 18.8735 23.4321 17.9988 23.6286C17.5082 23.7338 16.347 24.0043 16.341 23.2709C16.3772 22.8353 16.4928 22.4096 16.6823 22.0145C16.987 21.2239 17.3771 20.4605 17.7703 19.703C18.2548 18.7772 18.7577 17.8604 19.294 16.9617C19.5409 16.5349 19.7908 16.111 20.0651 15.6992C20.1951 15.4802 20.3418 15.2712 20.5039 15.074C20.6349 14.9267 20.7629 14.8516 20.8087 14.6472C20.9458 14.007 20.5801 13.0481 19.9767 12.8437C19.5774 12.7024 19.0929 12.8738 18.6967 13.1202C17.6727 13.7575 16.6823 14.4909 15.6735 15.1732C14.5795 15.9127 11.9647 18.3113 12.0165 18.2031C12.3212 17.4276 12.8546 16.7603 13.2721 16.0419C13.5975 15.4939 13.7768 14.8734 13.7932 14.2384C13.7932 13.9168 13.7932 12.7806 13.3422 12.7926C12.9704 12.7926 12.626 13.7875 12.4828 14.046C11.2881 16.1501 9.98072 18.2752 8.6337 20.3583C7.99147 21.3243 7.09644 22.1012 6.04329 22.6066C4.86998 23.2078 3.5382 23.9412 2.27347 24.1366C1.75234 24.2177 1.11845 24.1156 1.03921 23.6196C0.889884 22.6848 2.02357 20.9504 2.51423 20.1208C3.29719 18.7972 4.25771 17.5839 5.36978 16.5138C6.86613 15.074 8.41733 13.7214 7.5762 11.8037C7.4604 11.5422 7.28973 11.2536 6.98193 11.2536C6.71411 11.298 6.47279 11.4395 6.30538 11.6504C5.68782 12.3104 5.11949 13.0136 4.60485 13.7545C3.48676 15.201 2.47542 16.7249 1.57863 18.3143C0.725316 19.9375 0.0975215 21.6929 0 23.4453C0.00361646 23.6919 0.0468174 23.9364 0.127997 24.1697C0.243804 24.4312 0.432752 25.6395 2.84641 25.3119C3.65706 25.2007 4.42199 24.7107 5.1534 24.2688C5.48559 24.0464 5.80558 23.848 6.12557 23.6316C6.38398 23.4718 6.65628 23.335 6.93927 23.2228C6.8253 23.4818 6.78221 23.7658 6.81432 24.0464C6.89355 24.3079 7.04593 24.8219 7.36897 24.867C7.69201 24.9121 8.14 24.4011 8.35942 24.1456C9.27369 23.0545 10.2093 21.9784 11.1784 20.9474C11.8712 20.1404 12.6295 19.3905 13.4458 18.7051C15.0793 17.4486 16.6792 16.081 18.4133 15.0169C18.2821 15.445 18.0847 15.8505 17.8282 16.2193C17.3954 16.9527 17.0145 17.7222 16.6091 18.4856C15.6553 20.3462 14.9543 22.2099 15.5943 24.1276C15.6449 24.3557 15.7637 24.5636 15.9354 24.7244C16.1071 24.8851 16.3237 24.9914 16.5573 25.0293C17.1217 25.0958 17.6939 25.0171 18.2182 24.8009C18.9649 24.5273 19.7176 24.1997 20.4216 23.8691C21.0311 23.5685 21.4486 23.1988 21.473 23.331C21.473 23.3791 20.1991 25.2818 20.0437 25.4982C18.7455 27.3017 18.0537 28.4139 16.7432 30.2294C16.5835 30.4164 16.468 30.6362 16.405 30.8726C16.3901 31.055 16.423 31.2381 16.5003 31.4044C16.5777 31.5707 16.697 31.7146 16.8468 31.8225C17.2705 32.2072 17.4015 31.8525 17.7611 31.4197C20.4826 28.0171 22.8932 24.6476 25.5567 21.3412C25.6482 21.23 25.8188 21.1428 25.9072 21.233C25.9424 21.2756 25.9627 21.3283 25.9651 21.3833C26.0352 21.8522 26.0352 22.3421 26.0626 22.823C26.1358 24.1156 26.4161 25.4171 27.1018 26.4691C28.2081 28.1644 30.7589 28.4469 32.7459 28.3658C36.0738 28.2305 39.6547 27.1875 42.8638 26.1325C43.2325 26.0182 43.2904 25.904 43.2051 25.8199ZM26.5137 20.3462C25.6268 19.8112 28.9517 17.5268 29.677 17.0398C30.4023 16.5529 31.0545 16.2193 31.8103 15.7834C32.2034 15.558 33.9649 14.5991 34.1112 15.3746C34.2087 15.8946 33.6937 16.6641 33.3371 17.0398C32.8697 17.4775 32.3592 17.8682 31.8134 18.2061C31.3684 18.5144 30.9054 18.7964 30.4267 19.0507C29.4088 19.6098 28.0649 20.4064 26.9129 20.4274C26.7746 20.4392 26.6359 20.411 26.5137 20.3462Z" fill="url(#paint0_linear_7009_12222)"/>
<path d="M9.8498 8.85463C9.69742 9.44076 10.2643 9.93672 10.8677 9.89163C11.4711 9.84655 12.0379 9.40469 12.4219 8.89971C12.6862 8.60741 12.8221 8.22365 12.7998 7.83265C12.7145 7.36073 12.1507 7.12026 11.6479 7.25853C11.145 7.3968 9.95646 8.45184 9.8498 8.85463Z" fill="url(#paint1_linear_7009_12222)"/>
</g>
<defs>
<linearGradient id="paint0_linear_7009_12222" x1="0" y1="15.9998" x2="43.2386" y2="15.9998" gradientUnits="userSpaceOnUse">
<stop stop-color="#B428E5"/>
<stop offset="1" stop-color="#696FF6"/>
</linearGradient>
<linearGradient id="paint1_linear_7009_12222" x1="9.82542" y1="8.55705" x2="12.8151" y2="8.55705" gradientUnits="userSpaceOnUse">
<stop stop-color="#B428E5"/>
<stop offset="1" stop-color="#696FF6"/>
</linearGradient>
<clipPath id="clip0_7009_12222">
<rect width="98" height="32" fill="white"/>
</clipPath>
</defs>
</svg>
