<svg xmlns:xlink="http://www.w3.org/1999/xlink" xmlns="http://www.w3.org/2000/svg" width="127" height="42" viewBox="0 0 127 42" fill="none">
<g id="Group 2">
<path id="Vector" d="M51.5848 17.0848C51.5712 16.2373 51.7978 15.4056 52.2338 14.702C52.6853 13.9954 53.304 13.4337 54.0249 13.0758C54.8398 12.6672 55.7296 12.4641 56.6273 12.4817C57.5089 12.4578 58.3839 12.6507 59.1869 13.0459C59.8705 13.3885 60.4472 13.9398 60.8463 14.6323C61.2486 15.3673 61.4513 16.2105 61.4311 17.0649H58.4459C58.4556 16.8306 58.4153 16.5971 58.3282 16.3824C58.2411 16.1677 58.1096 15.9777 57.9438 15.827C57.5568 15.5065 57.0769 15.3464 56.5906 15.3757C56.077 15.3472 55.5682 15.4947 55.1363 15.7972C54.9598 15.9266 54.8168 16.1028 54.7209 16.309C54.625 16.5152 54.5793 16.7446 54.5882 16.9753C54.5797 17.1637 54.6058 17.352 54.6652 17.5292C54.7247 17.7064 54.8161 17.869 54.9342 18.0075C55.233 18.2878 55.5995 18.4697 55.9905 18.5318L58.051 18.9931C59.2756 19.2631 60.1839 19.7288 60.7759 20.3903C61.3678 21.0519 61.6637 21.9723 61.6637 23.1515C61.6821 24.0371 61.4561 24.9085 61.0147 25.6539C60.5633 26.388 59.9252 26.9644 59.1777 27.3133C58.3084 27.7195 57.3685 27.9176 56.4222 27.894C55.5085 27.9163 54.601 27.725 53.7616 27.3332C53.0441 26.9963 52.4325 26.4405 52.0011 25.7335C51.5804 25.0106 51.3673 24.1686 51.3888 23.3142H54.3739C54.3633 23.5532 54.4065 23.7914 54.4999 24.0082C54.5932 24.2251 54.7339 24.414 54.9097 24.5587C55.3626 24.8813 55.8997 25.0361 56.4406 25.0001C57.0035 25.0319 57.5632 24.8891 58.054 24.5886C58.236 24.4775 58.3869 24.3153 58.4909 24.1191C58.5949 23.9228 58.6481 23.6998 58.6449 23.4735C58.6661 23.1246 58.5631 22.7801 58.3572 22.511C58.0885 22.2413 57.7474 22.0716 57.3835 22.0265L55.2863 21.5652C54.0616 21.2975 53.1431 20.7886 52.5308 20.0385C51.88 19.2205 51.5416 18.1641 51.5848 17.0848Z" fill="#1E1E1E"/>
<path id="Vector_2" d="M66.8035 12.4797V27.8959H64.6012V12.4797H66.8035Z" fill="#1E1E1E"/>
<path id="Vector_3" d="M77.1007 15.5215C76.3237 15.4917 75.5555 15.6989 74.893 16.1169C74.2936 16.5247 73.8265 17.1071 73.5515 17.7895C73.233 18.5927 73.0789 19.4547 73.0989 20.3217C73.0704 21.188 73.2458 22.0486 73.6101 22.8305C73.9173 23.4708 74.4098 23.9978 75.02 24.3391C75.6549 24.682 76.3641 24.8535 77.0811 24.8375C77.6499 24.8526 78.2167 24.7631 78.7548 24.5733C79.1774 24.4251 79.5593 24.1751 79.8684 23.8441C80.1473 23.5412 80.3623 23.1825 80.5001 22.7904C80.6391 22.4015 80.7097 21.9903 80.7085 21.5761V20.3819L82.2258 21.9474H76.8239V19.0706H83.6846V27.6742H80.9429L80.6889 25.627L81.0439 25.9314C80.8045 26.3521 80.4693 26.7068 80.067 26.965C79.5933 27.2766 79.0746 27.5091 78.5301 27.6541C77.9222 27.8174 77.296 27.8984 76.6676 27.8949C75.4108 27.9166 74.1722 27.5846 73.0859 26.9349C72.041 26.295 71.1907 25.3682 70.6307 24.2588C70.0177 23.0162 69.7124 21.6375 69.7418 20.2448C69.7167 18.8478 70.036 17.4669 70.6698 16.2307C71.2706 15.0809 72.173 14.1272 73.2747 13.4777C74.3579 12.8844 75.5561 12.5465 76.7823 12.4887C78.0085 12.4308 79.2318 12.6544 80.3633 13.1432C81.2636 13.5573 82.0476 14.1982 82.6426 15.0064C83.2425 15.829 83.6047 16.8086 83.6878 17.833H80.334C80.2717 17.4666 80.1333 17.1183 79.9283 16.8118C79.7232 16.5052 79.4562 16.2477 79.1455 16.0567C78.5222 15.6953 77.8164 15.5106 77.1007 15.5215Z" fill="#1E1E1E"/>
<path id="Vector_4" d="M89.8225 27.8959H86.6243V12.4797H89.8225L94.3021 23.9774L98.8018 12.4797H102.04V27.8959H98.8422V22.6047C98.8422 22.0611 98.8422 21.6104 98.8624 21.2492C98.8826 20.8879 98.896 20.5611 98.9162 20.3031C98.9364 20.0451 98.9666 19.7492 99.007 19.4568L95.8087 27.8959H92.782L89.6342 19.4568C89.7324 20.0702 89.7897 20.6897 89.8057 21.3111C89.8259 21.9785 89.836 22.7354 89.836 23.5817L89.8225 27.8959Z" fill="#1E1E1E"/>
<path id="Vector_5" d="M106.948 27.8959H103.509L108.887 12.4797H112.105L117.457 27.8959H113.95L112.888 24.6448H108.027L106.948 27.8959ZM110.064 18.521L108.985 21.8134H111.957L110.871 18.521C110.787 18.2561 110.706 17.9843 110.626 17.7091C110.557 17.4835 110.503 17.2537 110.464 17.021C110.434 17.1999 110.383 17.427 110.31 17.7091C110.236 17.9912 110.158 18.2423 110.064 18.521Z" fill="#1E1E1E"/>
<path id="Vector_6" d="M57.2226 29.0358C56.4974 28.3125 53.1761 29.3739 52.1761 29.4787C49.1031 29.8336 45.454 30.5671 42.5499 29.6071C41.4903 29.2691 40.4605 28.5254 40.232 27.3795C40.1161 26.815 39.4373 24.5266 40.583 24.0703C41.2651 23.6816 42.0665 23.3233 42.8016 22.9853C43.7296 22.5986 44.6302 22.1469 45.4971 21.6332C46.5964 20.9571 47.6561 20.0614 48.2256 18.8682C48.535 18.2629 48.6737 17.5819 48.6263 16.9009C48.57 16.1099 47.6329 15.6468 46.9044 15.7381C46.3978 15.7636 45.9009 15.8887 45.4408 16.1065C44.4871 16.4986 41.7983 18.2969 40.2154 19.9464C39.7485 20.4163 38.424 21.6332 38.6326 21.2242C38.8909 20.7408 40.1327 18.7397 40.3777 18.2665C42.3248 14.5482 44.603 11.0294 46.7686 7.55458C48.1196 5.38787 49.9608 2.32539 50.2224 2.87637C51.4906 5.5197 48.1958 9.45426 48.5932 9.17033C48.6395 9.71116 50.07 7.86894 51.0403 6.23292C51.7025 5.12083 51.6562 2.21723 51.2125 1.08823C51.027 0.615004 51.0833 -0.672858 49.6197 0.442613C47.7587 1.8623 43.0301 10.6373 41.7354 12.8176C41.189 13.7404 40.6525 14.6767 40.0797 15.5894C39.5068 16.502 37.2849 20.2338 36.7683 21.0484C36.2517 21.863 35.6723 22.7824 35.1126 23.6613C34.5067 24.5942 33.5 25.0844 32.5728 25.5576C31.7047 26.0101 30.7848 26.3507 29.8343 26.5717C29.3012 26.69 28.0396 26.9942 28.033 26.1694C28.0723 25.6795 28.198 25.2009 28.4038 24.7565C28.735 23.8675 29.1588 23.0089 29.586 22.1571C30.1125 21.116 30.6589 20.085 31.2417 19.0744C31.5099 18.5944 31.7814 18.1178 32.0794 17.6547C32.2208 17.4083 32.3802 17.1733 32.5563 16.9516C32.6987 16.7859 32.8377 16.7014 32.8874 16.4716C33.0364 15.7516 32.6391 14.6733 31.9834 14.4435C31.5496 14.2846 31.0231 14.4773 30.5926 14.7544C29.48 15.471 28.4038 16.2958 27.3078 17.0631C26.119 17.8947 23.2779 20.5921 23.3341 20.4704C23.6653 19.5983 24.2448 18.8479 24.6984 18.04C25.0521 17.4237 25.2469 16.7259 25.2647 16.0119C25.2647 15.6502 25.2647 14.3725 24.7746 14.386C24.3706 14.386 23.9964 15.5048 23.8408 15.7955C22.5427 18.1617 21.1222 20.5515 19.6585 22.894C18.9607 23.9804 17.9882 24.854 16.8439 25.4224C15.569 26.0984 14.122 26.9232 12.7477 27.1429C12.1815 27.2342 11.4927 27.1193 11.4066 26.5615C11.2444 25.5103 12.4762 23.5599 13.0093 22.627C13.8601 21.1385 14.9037 19.7741 16.1121 18.5707C17.738 16.9516 19.4234 15.4305 18.5095 13.2739C18.3837 12.9798 18.1982 12.6553 17.8638 12.6553C17.5728 12.7052 17.3106 12.8643 17.1287 13.1015C16.4576 13.8437 15.8401 14.6345 15.2809 15.4677C14.0661 17.0944 12.9672 18.8081 11.9927 20.5955C11.0656 22.4208 10.3834 24.3948 10.2775 26.3655C10.2814 26.6428 10.3283 26.9178 10.4165 27.1801C10.5424 27.4742 10.7477 28.833 13.3703 28.4646C14.2511 28.3395 15.0822 27.7885 15.877 27.2917C16.2379 27.0415 16.5856 26.8184 16.9333 26.575C17.2141 26.3954 17.5099 26.2415 17.8174 26.1153C17.6936 26.4066 17.6468 26.726 17.6817 27.0415C17.7678 27.3356 17.9333 27.9136 18.2843 27.9643C18.6353 28.015 19.1221 27.4404 19.3605 27.1531C20.3539 25.926 21.3705 24.7159 22.4235 23.5565C23.1762 22.649 24.0002 21.8057 24.8872 21.0349C26.6621 19.6219 28.4005 18.084 30.2847 16.8874C30.1421 17.3687 29.9277 17.8248 29.6489 18.2394C29.1787 19.0642 28.7648 19.9295 28.3244 20.7881C27.2879 22.8805 26.5263 24.9762 27.2217 27.1328C27.2766 27.3893 27.4057 27.6231 27.5923 27.8039C27.7788 27.9847 28.0142 28.1042 28.2681 28.1468C28.8813 28.2216 29.503 28.1331 30.0728 27.89C30.884 27.5824 31.7019 27.2139 32.4669 26.8421C33.1291 26.5041 33.5828 26.0883 33.6093 26.237C33.6093 26.2911 32.2251 28.4308 32.0563 28.6742C30.6456 30.7023 29.8939 31.953 28.4701 33.9946C28.2965 34.205 28.171 34.452 28.1025 34.718C28.0864 34.9231 28.1221 35.129 28.2061 35.316C28.2902 35.503 28.4198 35.6648 28.5826 35.7861C29.0429 36.2188 29.1853 35.8199 29.576 35.3332C32.5331 31.5068 35.1524 27.7176 38.0465 23.9993C38.1458 23.8743 38.3313 23.7762 38.4273 23.8776C38.4655 23.9256 38.4876 23.9849 38.4902 24.0466C38.5664 24.574 38.5664 25.1249 38.5962 25.6658C38.6757 27.1193 38.9803 28.5829 39.7254 29.766C40.9274 31.6724 43.699 31.9902 45.858 31.8989C49.474 31.7468 53.3648 30.5738 56.8517 29.3874C57.2524 29.2589 57.3153 29.1305 57.2226 29.0358ZM39.0863 22.8805C38.1227 22.2788 41.7353 19.7098 42.5235 19.1622C43.3116 18.6146 44.0202 18.2394 44.8414 17.7493C45.2686 17.4958 47.1825 16.4175 47.3415 17.2896C47.4474 17.8744 46.8878 18.7397 46.5004 19.1622C45.9925 19.6544 45.4379 20.0937 44.8447 20.4738C44.3613 20.8204 43.8582 21.1376 43.338 21.4236C42.2321 22.0523 40.7717 22.9481 39.5201 22.9717C39.3698 22.985 39.2191 22.9533 39.0863 22.8805Z" fill="url(#paint0_linear_462_292)"/>
<path id="Vector_7" d="M20.5859 10.3187C20.398 11.1231 21.0968 11.8037 21.8407 11.7418C22.5845 11.6799 23.2833 11.0736 23.7567 10.3806C24.0824 9.97948 24.25 9.45287 24.2225 8.91629C24.1174 8.26869 23.4223 7.93871 22.8024 8.12845C22.1825 8.31819 20.7174 9.76601 20.5859 10.3187Z" fill="url(#paint1_linear_462_292)"/>
<path id="Vector 394 (Stroke)" fill-rule="evenodd" clip-rule="evenodd" d="M0 0.734131H38.547V3.17432H2.41469V39.4038H124.585V3.17432H58.294V0.734131H127V41.844H0V0.734131Z" fill="#1E1E1E"/>
</g>
<defs>
<linearGradient id="paint0_linear_462_292" x1="10.2775" y1="17.9927" x2="57.259" y2="17.9927" gradientUnits="userSpaceOnUse">
<stop stop-color="#B428E5"/>
<stop offset="1" stop-color="#696FF6"/>
</linearGradient>
<linearGradient id="paint1_linear_462_292" x1="20.5558" y1="9.91038" x2="24.2413" y2="9.91038" gradientUnits="userSpaceOnUse">
<stop stop-color="#B428E5"/>
<stop offset="1" stop-color="#696FF6"/>
</linearGradient>
</defs>
</svg>