<svg width="24" height="24" viewBox="0 0 24 24" fill="none" xmlns="http://www.w3.org/2000/svg">
<path d="M10.736 20.7694C9.51005 20.7694 8.68718 22.0179 9.6762 22.7424C10.3478 23.2343 11.1627 23.5 12 23.5C12.8373 23.5 13.6522 23.2343 14.3238 22.7424C15.3128 22.0179 14.49 20.7694 13.264 20.7694H10.736ZM2 17.167C2 18.5528 3.12344 19.6762 4.50927 19.6762H19.4907C20.8766 19.6762 22 18.5528 22 17.167C22 16.6651 21.8495 16.1748 21.568 15.7593L20.2943 13.8797C19.9577 13.383 19.7778 12.7968 19.7778 12.1968V7.65187C19.7778 6.64701 19.5766 5.65199 19.1857 4.72363C18.7949 3.79526 18.222 2.95172 17.4997 2.24118C16.7775 1.53064 15.9201 0.967006 14.9764 0.582464C14.0328 0.197921 13.0214 0 12 0C10.9786 0 9.96722 0.197921 9.02357 0.582464C8.07993 0.967006 7.22251 1.53064 6.50028 2.24118C5.77805 2.95172 5.20514 3.79526 4.81427 4.72363C4.4234 5.65199 4.22222 6.64701 4.22222 7.65187V12.1968C4.22222 12.7968 4.04231 13.383 3.70573 13.8797L2.43201 15.7593C2.15048 16.1748 2 16.6651 2 17.167Z" fill="#8247FF"/>
</svg>
