<svg width="69" height="22" viewBox="0 0 69 22" fill="none" xmlns="http://www.w3.org/2000/svg">
<path d="M9.3 5.05185H12.7C12.7 4.61198 12.5209 4.19013 12.2021 3.87909C11.8833 3.56805 11.4509 3.39332 11 3.39332C10.5491 3.39332 10.1167 3.56805 9.79792 3.87909C9.47911 4.19013 9.3 4.61198 9.3 5.05185ZM8.025 5.05185C8.025 4.6707 8.10195 4.29328 8.25146 3.94114C8.40097 3.589 8.6201 3.26904 8.89636 2.99952C9.17261 2.73 9.50057 2.51621 9.86152 2.37035C10.2225 2.22449 10.6093 2.14941 11 2.14941C11.3907 2.14941 11.7775 2.22449 12.1385 2.37035C12.4994 2.51621 12.8274 2.73 13.1036 2.99952C13.3799 3.26904 13.599 3.589 13.7485 3.94114C13.8981 4.29328 13.975 4.6707 13.975 5.05185H18.8625C19.0316 5.05185 19.1937 5.11738 19.3133 5.23402C19.4328 5.35066 19.5 5.50885 19.5 5.6738C19.5 5.83876 19.4328 5.99695 19.3133 6.11359C19.1937 6.23023 19.0316 6.29576 18.8625 6.29576H17.7405L16.746 16.339C16.6697 17.1086 16.3023 17.8228 15.7155 18.3424C15.1287 18.862 14.3646 19.1497 13.5721 19.1494H8.4279C7.63558 19.1495 6.87164 18.8617 6.28501 18.3421C5.69838 17.8225 5.33112 17.1084 5.25485 16.339L4.2595 6.29576H3.1375C2.96842 6.29576 2.80627 6.23023 2.68672 6.11359C2.56716 5.99695 2.5 5.83876 2.5 5.6738C2.5 5.50885 2.56716 5.35066 2.68672 5.23402C2.80627 5.11738 2.96842 5.05185 3.1375 5.05185H8.025ZM9.725 8.99088C9.725 8.82593 9.65784 8.66773 9.53828 8.55109C9.41873 8.43445 9.25658 8.36893 9.0875 8.36893C8.91842 8.36893 8.75627 8.43445 8.63672 8.55109C8.51717 8.66773 8.45 8.82593 8.45 8.99088V15.2104C8.45 15.3753 8.51717 15.5335 8.63672 15.6502C8.75627 15.7668 8.91842 15.8323 9.0875 15.8323C9.25658 15.8323 9.41873 15.7668 9.53828 15.6502C9.65784 15.5335 9.725 15.3753 9.725 15.2104V8.99088ZM12.9125 8.36893C13.0816 8.36893 13.2437 8.43445 13.3633 8.55109C13.4828 8.66773 13.55 8.82593 13.55 8.99088V15.2104C13.55 15.3753 13.4828 15.5335 13.3633 15.6502C13.2437 15.7668 13.0816 15.8323 12.9125 15.8323C12.7434 15.8323 12.5813 15.7668 12.4617 15.6502C12.3422 15.5335 12.275 15.3753 12.275 15.2104V8.99088C12.275 8.82593 12.3422 8.66773 12.4617 8.55109C12.5813 8.43445 12.7434 8.36893 12.9125 8.36893ZM6.5239 16.2196C6.56975 16.6812 6.79016 17.1096 7.14216 17.4213C7.49417 17.733 7.95253 17.9056 8.4279 17.9055H13.5721C14.0475 17.9056 14.5058 17.733 14.8578 17.4213C15.2098 17.1096 15.4303 16.6812 15.4761 16.2196L16.4604 6.29576H5.5396L6.5239 16.2196Z" fill="#808080"/>
<path d="M27.337 16V5.878C27.3697 5.878 27.4677 5.88033 27.631 5.885C27.799 5.885 28.002 5.885 28.24 5.885C28.478 5.88033 28.7253 5.88033 28.982 5.885C29.2387 5.885 29.4743 5.88733 29.689 5.892C30.9303 5.91067 31.936 6.11367 32.706 6.501C33.4807 6.88367 34.0477 7.44133 34.407 8.174C34.771 8.90667 34.953 9.80733 34.953 10.876C34.953 11.996 34.757 12.9363 34.365 13.697C33.9777 14.4577 33.385 15.0317 32.587 15.419C31.7937 15.8063 30.7833 16 29.556 16H27.337ZM28.667 14.887H29.556C30.3913 14.887 31.11 14.7587 31.712 14.502C32.314 14.2407 32.776 13.8183 33.098 13.235C33.4247 12.6517 33.588 11.8723 33.588 10.897C33.588 9.92167 33.4293 9.14933 33.112 8.58C32.7993 8.01067 32.3467 7.60467 31.754 7.362C31.1613 7.11467 30.4473 6.991 29.612 6.991H28.667V14.887ZM39.837 16.14C39.165 16.14 38.5724 15.993 38.059 15.699C37.5457 15.405 37.1444 14.9827 36.855 14.432C36.5657 13.8813 36.421 13.221 36.421 12.451C36.421 11.6903 36.5517 11.023 36.813 10.449C37.0744 9.875 37.4524 9.427 37.947 9.105C38.4464 8.783 39.046 8.622 39.746 8.622C40.4274 8.622 41.0037 8.769 41.475 9.063C41.9464 9.357 42.3034 9.77233 42.546 10.309C42.7934 10.841 42.917 11.4733 42.917 12.206V12.682H37.73C37.73 13.1393 37.8047 13.5547 37.954 13.928C38.108 14.2967 38.339 14.5907 38.647 14.81C38.955 15.0293 39.3447 15.139 39.816 15.139C40.278 15.139 40.6747 15.0317 41.006 14.817C41.342 14.6023 41.5567 14.292 41.65 13.886H42.868C42.784 14.376 42.588 14.789 42.28 15.125C41.9767 15.461 41.6104 15.7153 41.181 15.888C40.7564 16.056 40.3084 16.14 39.837 16.14ZM37.737 11.807H41.671C41.671 11.3917 41.601 11.0183 41.461 10.687C41.321 10.351 41.1064 10.0873 40.817 9.896C40.5324 9.7 40.173 9.602 39.739 9.602C39.2864 9.602 38.9107 9.71167 38.612 9.931C38.3134 10.1457 38.0917 10.4233 37.947 10.764C37.8024 11.1 37.7324 11.4477 37.737 11.807ZM46.5347 16.091C46.1427 16.091 45.8254 16.0373 45.5827 15.93C45.3447 15.8227 45.1604 15.678 45.0297 15.496C44.9037 15.314 44.8174 15.1063 44.7707 14.873C44.7287 14.635 44.7077 14.39 44.7077 14.138V5.598H45.9817V14.012C45.9817 14.376 46.0517 14.649 46.1917 14.831C46.3364 15.013 46.5371 15.1133 46.7937 15.132L47.1857 15.139V15.979C47.0784 16.0117 46.9664 16.0373 46.8497 16.056C46.7331 16.0793 46.6281 16.091 46.5347 16.091ZM51.6632 16.14C50.9912 16.14 50.3985 15.993 49.8852 15.699C49.3719 15.405 48.9705 14.9827 48.6812 14.432C48.3919 13.8813 48.2472 13.221 48.2472 12.451C48.2472 11.6903 48.3779 11.023 48.6392 10.449C48.9005 9.875 49.2785 9.427 49.7732 9.105C50.2725 8.783 50.8722 8.622 51.5722 8.622C52.2535 8.622 52.8299 8.769 53.3012 9.063C53.7725 9.357 54.1295 9.77233 54.3722 10.309C54.6195 10.841 54.7432 11.4733 54.7432 12.206V12.682H49.5562C49.5562 13.1393 49.6309 13.5547 49.7802 13.928C49.9342 14.2967 50.1652 14.5907 50.4732 14.81C50.7812 15.0293 51.1709 15.139 51.6422 15.139C52.1042 15.139 52.5009 15.0317 52.8322 14.817C53.1682 14.6023 53.3829 14.292 53.4762 13.886H54.6942C54.6102 14.376 54.4142 14.789 54.1062 15.125C53.8029 15.461 53.4365 15.7153 53.0072 15.888C52.5825 16.056 52.1345 16.14 51.6632 16.14ZM49.5632 11.807H53.4972C53.4972 11.3917 53.4272 11.0183 53.2872 10.687C53.1472 10.351 52.9325 10.0873 52.6432 9.896C52.3585 9.7 51.9992 9.602 51.5652 9.602C51.1125 9.602 50.7369 9.71167 50.4382 9.931C50.1395 10.1457 49.9179 10.4233 49.7732 10.764C49.6285 11.1 49.5585 11.4477 49.5632 11.807ZM58.8588 16.035C58.3594 16.035 57.9721 15.9673 57.6968 15.832C57.4214 15.6967 57.2278 15.496 57.1158 15.23C57.0084 14.964 56.9548 14.6373 56.9548 14.25V9.707H55.7788V8.762H56.9898L57.3048 6.655H58.2568V8.755H59.8878V9.707H58.2568V14.208C58.2568 14.4647 58.2824 14.6537 58.3338 14.775C58.3898 14.8917 58.4808 14.9663 58.6068 14.999C58.7328 15.0317 58.9101 15.048 59.1388 15.048H59.9298V15.916C59.8411 15.9487 59.7058 15.9767 59.5238 16C59.3464 16.0233 59.1248 16.035 58.8588 16.035ZM64.5148 16.14C63.8428 16.14 63.2501 15.993 62.7368 15.699C62.2234 15.405 61.8221 14.9827 61.5328 14.432C61.2434 13.8813 61.0988 13.221 61.0988 12.451C61.0988 11.6903 61.2294 11.023 61.4908 10.449C61.7521 9.875 62.1301 9.427 62.6248 9.105C63.1241 8.783 63.7238 8.622 64.4238 8.622C65.1051 8.622 65.6814 8.769 66.1528 9.063C66.6241 9.357 66.9811 9.77233 67.2238 10.309C67.4711 10.841 67.5948 11.4733 67.5948 12.206V12.682H62.4078C62.4078 13.1393 62.4824 13.5547 62.6318 13.928C62.7858 14.2967 63.0168 14.5907 63.3248 14.81C63.6328 15.0293 64.0224 15.139 64.4938 15.139C64.9558 15.139 65.3524 15.0317 65.6838 14.817C66.0198 14.6023 66.2344 14.292 66.3278 13.886H67.5458C67.4618 14.376 67.2658 14.789 66.9578 15.125C66.6544 15.461 66.2881 15.7153 65.8588 15.888C65.4341 16.056 64.9861 16.14 64.5148 16.14ZM62.4148 11.807H66.3488C66.3488 11.3917 66.2788 11.0183 66.1388 10.687C65.9988 10.351 65.7841 10.0873 65.4948 9.896C65.2101 9.7 64.8508 9.602 64.4168 9.602C63.9641 9.602 63.5884 9.71167 63.2898 9.931C62.9911 10.1457 62.7694 10.4233 62.6248 10.764C62.4801 11.1 62.4101 11.4477 62.4148 11.807Z" fill="#808080"/>
</svg>
