<svg width="24" height="24" viewBox="0 0 24 24" fill="none" xmlns="http://www.w3.org/2000/svg">
<path d="M12 2.74999C11.5346 2.74985 11.0806 2.89403 10.7006 3.16268C10.3205 3.43132 10.0331 3.8112 9.878 4.24999C9.80937 4.43442 9.671 4.58448 9.49273 4.66782C9.31447 4.75116 9.11059 4.7611 8.92506 4.6955C8.73954 4.6299 8.58722 4.49401 8.50097 4.31713C8.41472 4.14025 8.40144 3.93657 8.464 3.74999C8.72276 3.019 9.20171 2.38616 9.83494 1.93858C10.4682 1.491 11.2246 1.25067 12 1.25067C12.7754 1.25067 13.5318 1.491 14.1651 1.93858C14.7983 2.38616 15.2772 3.019 15.536 3.74999C15.5986 3.93657 15.5853 4.14025 15.499 4.31713C15.4128 4.49401 15.2605 4.6299 15.0749 4.6955C14.8894 4.7611 14.6855 4.75116 14.5073 4.66782C14.329 4.58448 14.1906 4.43442 14.122 4.24999C13.9667 3.81129 13.6793 3.43148 13.2993 3.16286C12.9193 2.89424 12.4654 2.75 12 2.74999ZM2.75 5.99999C2.75 5.80108 2.82902 5.61031 2.96967 5.46966C3.11032 5.32901 3.30109 5.24999 3.5 5.24999H20.5C20.6989 5.24999 20.8897 5.32901 21.0303 5.46966C21.171 5.61031 21.25 5.80108 21.25 5.99999C21.25 6.1989 21.171 6.38967 21.0303 6.53032C20.8897 6.67097 20.6989 6.74999 20.5 6.74999H3.5C3.30109 6.74999 3.11032 6.67097 2.96967 6.53032C2.82902 6.38967 2.75 6.1989 2.75 5.99999ZM5.915 8.44999C5.90174 8.25148 5.81016 8.06636 5.66041 7.93537C5.51067 7.80437 5.31501 7.73823 5.1165 7.75149C4.91799 7.76475 4.73287 7.85633 4.60188 8.00608C4.47088 8.15582 4.40474 8.35148 4.418 8.54999L4.882 15.502C4.967 16.784 5.036 17.82 5.198 18.634C5.367 19.479 5.653 20.185 6.245 20.738C6.836 21.292 7.56 21.531 8.415 21.642C9.237 21.75 10.275 21.75 11.561 21.75H12.44C13.725 21.75 14.764 21.75 15.586 21.642C16.44 21.531 17.164 21.292 17.756 20.738C18.347 20.185 18.633 19.478 18.802 18.634C18.964 17.82 19.032 16.784 19.118 15.502L19.582 8.54999C19.5953 8.35148 19.5291 8.15582 19.3981 8.00608C19.2671 7.85633 19.082 7.76475 18.8835 7.75149C18.685 7.73823 18.4893 7.80437 18.3396 7.93537C18.1898 8.06636 18.0983 8.25148 18.085 8.44999L17.625 15.35C17.535 16.697 17.471 17.635 17.331 18.34C17.194 19.025 17.004 19.387 16.731 19.643C16.457 19.899 16.083 20.065 15.391 20.155C14.678 20.248 13.738 20.25 12.387 20.25H11.613C10.263 20.25 9.323 20.248 8.609 20.155C7.917 20.065 7.543 19.899 7.269 19.643C6.996 19.387 6.806 19.025 6.669 18.34C6.529 17.635 6.465 16.697 6.375 15.35L5.915 8.44999Z" fill="#4A4A4A"/>
<path d="M9.42498 10.254C9.62282 10.2342 9.82044 10.2937 9.97439 10.4195C10.1283 10.5454 10.226 10.7272 10.246 10.925L10.746 15.925C10.7606 16.1201 10.6985 16.3132 10.5728 16.4631C10.4471 16.613 10.2678 16.7078 10.0731 16.7274C9.87846 16.7469 9.68387 16.6897 9.53084 16.5678C9.37781 16.4459 9.27846 16.2691 9.25398 16.075L8.75398 11.075C8.73416 10.8771 8.7937 10.6795 8.91953 10.5256C9.04535 10.3716 9.22716 10.2739 9.42498 10.254ZM15.246 11.075C15.2606 10.8799 15.1985 10.6868 15.0728 10.5369C14.9471 10.387 14.7678 10.2922 14.5731 10.2726C14.3785 10.253 14.1839 10.3103 14.0308 10.4322C13.8778 10.554 13.7785 10.7309 13.754 10.925L13.254 15.925C13.2393 16.1201 13.3015 16.3132 13.4272 16.4631C13.5529 16.613 13.7322 16.7078 13.9269 16.7274C14.1215 16.7469 14.3161 16.6897 14.4691 16.5678C14.6222 16.4459 14.7215 16.2691 14.746 16.075L15.246 11.075Z" fill="#4A4A4A"/>
</svg>
