<svg width="18" height="18" viewBox="0 0 18 18" fill="none" xmlns="http://www.w3.org/2000/svg">
<path d="M17.0569 0.943079C16.453 0.339235 15.6339 0 14.7799 0C13.9259 0 13.1068 0.339235 12.5029 0.943079L1.74629 11.6991C1.38071 12.0647 1.12369 12.5245 1.00381 13.0274L0.0183197 17.1689C-0.0083634 17.281 -0.00586167 17.3982 0.0255865 17.5091C0.0570346 17.6201 0.116381 17.7211 0.197964 17.8026C0.279548 17.8841 0.380649 17.9433 0.491626 17.9746C0.602602 18.0059 0.719754 18.0083 0.831908 17.9815L4.97275 16.9952C5.47601 16.8755 5.93617 16.6184 6.30203 16.2527L17.0569 5.49854C17.6607 4.89468 18 4.07568 18 3.22171C18 2.36773 17.6607 1.54874 17.0569 0.944879V0.943079ZM13.4569 1.89701C13.6307 1.72328 13.8369 1.58548 14.0639 1.49146C14.2909 1.39744 14.5342 1.34904 14.7799 1.34904C15.0256 1.34904 15.2689 1.39744 15.4959 1.49146C15.7229 1.58548 15.9291 1.72328 16.1029 1.89701C16.2766 2.07073 16.4144 2.27698 16.5085 2.50396C16.6025 2.73094 16.6509 2.97422 16.6509 3.21991C16.6509 3.46559 16.6025 3.70887 16.5085 3.93586C16.4144 4.16284 16.2766 4.36908 16.1029 4.54281L15.3001 5.34465L12.6541 2.69975L13.4569 1.89701ZM11.7001 3.65548L14.3461 6.29948L5.34624 15.2988C5.15724 15.4878 4.91965 15.6201 4.65955 15.6822L1.5852 16.4147L2.31689 13.3406C2.37898 13.0796 2.51218 12.842 2.70118 12.653L11.7001 3.65368V3.65548Z" fill="#4A4A4A"/>
</svg>
