<svg width="14" height="14" viewBox="0 0 14 14" fill="none" xmlns="http://www.w3.org/2000/svg">
<circle cx="7" cy="7" r="7" fill="url(#paint0_linear_2859_9535)"/>
<path d="M5.26228 4.79072L2.3058 5.2113L2.25343 5.22176C2.17416 5.24241 2.1019 5.28333 2.04402 5.34034C1.98614 5.39735 1.94472 5.46842 1.92399 5.54628C1.90325 5.62414 1.90395 5.706 1.92601 5.78351C1.94807 5.86102 1.9907 5.93139 2.04954 5.98745L4.19136 8.03308L3.68626 10.9226L3.68024 10.9726C3.67538 11.0531 3.69241 11.1333 3.72956 11.2052C3.76672 11.2771 3.82268 11.3379 3.8917 11.3816C3.96072 11.4253 4.04034 11.4502 4.12239 11.4537C4.20444 11.4573 4.28597 11.4394 4.35865 11.4018L7.0028 10.0378L9.64092 11.4018L9.68726 11.4228C9.76375 11.4523 9.84688 11.4614 9.92812 11.449C10.0094 11.4367 10.0858 11.4033 10.1495 11.3524C10.2133 11.3015 10.2621 11.2349 10.291 11.1593C10.3199 11.0838 10.3277 11.0021 10.3138 10.9226L9.80821 8.03308L11.951 5.98699L11.9871 5.94835C12.0387 5.88595 12.0726 5.81124 12.0852 5.73182C12.0978 5.65241 12.0888 5.57113 12.059 5.49627C12.0292 5.4214 11.9797 5.35563 11.9155 5.30565C11.8514 5.25568 11.7748 5.22328 11.6938 5.21176L8.7373 4.79072L7.41569 2.16264C7.37744 2.08649 7.31824 2.02237 7.24478 1.97754C7.17132 1.9327 7.08653 1.90894 7.00002 1.90894C6.9135 1.90894 6.82872 1.9327 6.75526 1.97754C6.68179 2.02237 6.62259 2.08649 6.58435 2.16264L5.26228 4.79072Z" fill="#E2CAFE"/>
<defs>
<linearGradient id="paint0_linear_2859_9535" x1="12.8464" y1="-3.57056e-07" x2="0.000487287" y2="12.9624" gradientUnits="userSpaceOnUse">
<stop stop-color="#A941FB"/>
<stop offset="1" stop-color="#7864F0" stop-opacity="0.92"/>
</linearGradient>
</defs>
</svg>
