<svg width="59" height="20" viewBox="0 0 59 20" fill="none" xmlns="http://www.w3.org/2000/svg">
<path d="M12 15.25V12.25C12 11.625 11.7812 11.0938 11.3438 10.6562C10.9062 10.2188 10.375 10 9.75 10H2.85L5.55 12.7L4.5 13.75L0 9.25L4.5 4.75L5.55 5.8L2.85 8.5H9.75C10.7875 8.5 11.672 8.86575 12.4035 9.59725C13.135 10.3288 13.5005 11.213 13.5 12.25V15.25H12Z" fill="#808080"/>
<path d="M22.837 15V4.878H26.757C27.485 4.878 28.094 4.99 28.584 5.214C29.074 5.43333 29.4403 5.75067 29.683 6.166C29.9257 6.57667 30.047 7.069 30.047 7.643C30.047 8.19367 29.949 8.651 29.753 9.015C29.5617 9.379 29.3167 9.673 29.018 9.897C28.7193 10.1163 28.409 10.2867 28.087 10.408L30.075 15H28.703L26.855 10.639H24.132V15H22.837ZM24.132 9.568H26.337C27.0977 9.568 27.6857 9.414 28.101 9.106C28.5163 8.79333 28.724 8.33133 28.724 7.72C28.724 7.12267 28.5373 6.677 28.164 6.383C27.7953 6.08433 27.289 5.935 26.645 5.935H24.132V9.568ZM34.8722 15.14C34.2002 15.14 33.6075 14.993 33.0942 14.699C32.5809 14.405 32.1795 13.9827 31.8902 13.432C31.6009 12.8813 31.4562 12.221 31.4562 11.451C31.4562 10.6903 31.5869 10.023 31.8482 9.449C32.1095 8.875 32.4875 8.427 32.9822 8.105C33.4815 7.783 34.0812 7.622 34.7812 7.622C35.4625 7.622 36.0389 7.769 36.5102 8.063C36.9815 8.357 37.3385 8.77233 37.5812 9.309C37.8285 9.841 37.9522 10.4733 37.9522 11.206V11.682H32.7652C32.7652 12.1393 32.8399 12.5547 32.9892 12.928C33.1432 13.2967 33.3742 13.5907 33.6822 13.81C33.9902 14.0293 34.3799 14.139 34.8512 14.139C35.3132 14.139 35.7099 14.0317 36.0412 13.817C36.3772 13.6023 36.5919 13.292 36.6852 12.886H37.9032C37.8192 13.376 37.6232 13.789 37.3152 14.125C37.0119 14.461 36.6455 14.7153 36.2162 14.888C35.7915 15.056 35.3435 15.14 34.8722 15.14ZM32.7722 10.807H36.7062C36.7062 10.3917 36.6362 10.0183 36.4962 9.687C36.3562 9.351 36.1415 9.08733 35.8522 8.896C35.5675 8.7 35.2082 8.602 34.7742 8.602C34.3215 8.602 33.9459 8.71167 33.6472 8.931C33.3485 9.14567 33.1269 9.42333 32.9822 9.764C32.8375 10.1 32.7675 10.4477 32.7722 10.807ZM39.7429 17.254V7.762H41.0309L41.0449 9.022C41.1289 8.87267 41.2362 8.71633 41.3669 8.553C41.5022 8.38967 41.6655 8.238 41.8569 8.098C42.0529 7.958 42.2792 7.84367 42.5359 7.755C42.7972 7.66633 43.0935 7.622 43.4249 7.622C44.0035 7.622 44.5122 7.755 44.9509 8.021C45.3942 8.28233 45.7395 8.68367 45.9869 9.225C46.2342 9.76633 46.3579 10.4523 46.3579 11.283C46.3579 12.1137 46.2365 12.816 45.9939 13.39C45.7559 13.9593 45.4105 14.3933 44.9579 14.692C44.5052 14.9907 43.9592 15.14 43.3199 15.14C42.9979 15.14 42.7109 15.0933 42.4589 15C42.2115 14.9113 41.9945 14.7947 41.8079 14.65C41.6259 14.5007 41.4719 14.342 41.3459 14.174C41.2245 14.006 41.1242 13.845 41.0449 13.691V17.254H39.7429ZM43.0749 14.132C43.6722 14.132 44.1599 13.9057 44.5379 13.453C44.9159 12.9957 45.1049 12.2863 45.1049 11.325C45.1049 10.499 44.9322 9.84333 44.5869 9.358C44.2415 8.87267 43.7375 8.63 43.0749 8.63C42.4029 8.63 41.8942 8.87967 41.5489 9.379C41.2035 9.87367 41.0309 10.5223 41.0309 11.325C41.0309 11.843 41.1079 12.3143 41.2619 12.739C41.4159 13.1637 41.6445 13.502 41.9479 13.754C42.2512 14.006 42.6269 14.132 43.0749 14.132ZM49.9097 15.091C49.5177 15.091 49.2004 15.0373 48.9577 14.93C48.7197 14.8227 48.5354 14.678 48.4047 14.496C48.2787 14.314 48.1924 14.1063 48.1457 13.873C48.1037 13.635 48.0827 13.39 48.0827 13.138V4.598H49.3567V13.012C49.3567 13.376 49.4267 13.649 49.5667 13.831C49.7114 14.013 49.9121 14.1133 50.1687 14.132L50.5607 14.139V14.979C50.4534 15.0117 50.3414 15.0373 50.2247 15.056C50.1081 15.0793 50.0031 15.091 49.9097 15.091ZM52.7686 17.31C52.3439 17.31 52.0522 17.2797 51.8936 17.219C51.7349 17.1583 51.6556 17.128 51.6556 17.128V16.288L52.3976 16.302C52.6636 16.3113 52.8852 16.2927 53.0626 16.246C53.2399 16.1993 53.3822 16.1363 53.4896 16.057C53.5969 15.9777 53.6786 15.889 53.7346 15.791C53.7952 15.693 53.8442 15.5997 53.8816 15.511L54.1336 14.825L51.3056 7.762H52.6146L54.7496 13.348L56.8706 7.762H58.1376L55.0926 15.546C54.9012 16.0033 54.6889 16.3603 54.4556 16.617C54.2269 16.8737 53.9702 17.0533 53.6856 17.156C53.4056 17.2587 53.0999 17.31 52.7686 17.31Z" fill="#808080"/>
</svg>
