<svg xmlns:xlink="http://www.w3.org/1999/xlink" xmlns="http://www.w3.org/2000/svg" width="24" height="24" viewBox="0 0 24 24" fill="none">
<rect width="24" height="24" rx="12" fill="#2E2E2E"/>
<path d="M17.9567 17.8565C17.8146 17.6383 17.6708 17.4208 17.5287 17.2022C16.2327 15.2053 14.9364 13.2097 13.6397 11.2155C13.5774 11.1199 13.5794 11.0586 13.6515 10.9701C14.9643 9.35956 16.2759 7.74744 17.5863 6.13377C17.6149 6.09811 17.6536 6.06887 17.6341 6.00326C17.3845 6.00326 17.1333 6.01039 16.8824 6.00041C16.7638 5.99542 16.6891 6.03607 16.6129 6.13163C15.484 7.52445 14.3537 8.91597 13.2221 10.3062C13.1359 10.4132 13.1046 10.3903 13.0426 10.2905C12.9001 10.0594 12.7472 9.83548 12.5997 9.60798C12.1895 8.97587 11.7796 8.34353 11.3701 7.71095C11.2946 7.62144 11.2411 7.51554 11.1747 7.41926C10.8922 6.98066 10.6082 6.54349 10.3284 6.1031C10.2782 6.0243 10.2203 6.00077 10.133 6.00112C9.12264 6.00362 8.11462 6.00112 7.10559 6.00112C7.07191 6.00112 7.0288 5.99756 7.01297 6.01681C6.97929 6.05568 7.01937 6.09241 7.04092 6.12379C7.41387 6.69837 7.7867 7.27282 8.15941 7.84716C9.18102 9.41757 10.2026 10.9879 11.2242 12.558C11.2798 12.6432 11.2758 12.7006 11.2054 12.7859C9.85169 14.4426 8.50194 16.1028 7.15611 17.7667C7.1066 17.828 7.02139 17.8765 7.02711 17.9906C7.30968 17.9906 7.58922 17.9906 7.8691 17.9906C7.93915 17.9906 7.97856 17.9496 8.01998 17.8982C8.48543 17.3267 8.95167 16.7557 9.41869 16.1852C10.1614 15.2731 10.9036 14.3604 11.6452 13.4473C11.7072 13.371 11.7429 13.3621 11.8035 13.4577C12.1255 13.9637 12.4556 14.4643 12.7802 14.9675C13.4112 15.9397 14.0411 16.9129 14.67 17.8868C14.6895 17.9224 14.7178 17.9515 14.7519 17.9712C14.786 17.9908 14.8245 18.0001 14.8633 17.9981C15.8723 17.9959 16.8815 17.9949 17.8907 17.9949C17.9261 17.9949 17.9749 18.0177 17.9948 17.9671C18.0137 17.9221 17.9766 17.8897 17.9567 17.8565ZM16.6614 17.23C16.6335 17.2796 16.5786 17.2493 16.5368 17.2496C16.1559 17.2532 15.7743 17.2471 15.3917 17.2578C15.2597 17.2617 15.1762 17.2189 15.1014 17.1041C14.5729 16.294 14.0417 15.4857 13.508 14.6793C12.9954 13.902 12.4825 13.125 11.9692 12.3483C11.18 11.1559 10.3904 9.96397 9.60056 8.7725C9.20112 8.16845 8.80303 7.56344 8.40629 6.95748C8.37867 6.91505 8.3561 6.86869 8.31434 6.79452C8.81313 6.79452 9.27723 6.79452 9.74133 6.79452C9.82082 6.79452 9.84237 6.85657 9.87605 6.9072L11.8082 9.8312C12.606 11.0384 13.4041 12.2453 14.2025 13.452C15.0072 14.6701 15.8109 15.8889 16.6136 17.1084C16.6362 17.1441 16.6887 17.1783 16.6598 17.23H16.6614Z" fill="#FEFEFE"/>
</svg>