<svg width="18" height="18" viewBox="0 0 18 18" fill="none" xmlns="http://www.w3.org/2000/svg">
<g clip-path="url(#clip0_890_12011)">
<path d="M9.00021 17.3569C13.6157 17.3569 17.3574 13.6152 17.3574 8.99972C17.3574 4.3842 13.6157 0.642578 9.00021 0.642578C4.38469 0.642578 0.643066 4.3842 0.643066 8.99972C0.643066 13.6152 4.38469 17.3569 9.00021 17.3569Z" stroke="url(#paint0_linear_890_12011)" stroke-linecap="round" stroke-linejoin="round"/>
<path d="M9 5L9 9" stroke="url(#paint1_linear_890_12011)" stroke-linecap="round" stroke-linejoin="round"/>
<path d="M9.00016 12.8569C9.3552 12.8569 9.64301 12.5691 9.64301 12.214C9.64301 11.859 9.3552 11.5712 9.00016 11.5712C8.64512 11.5712 8.3573 11.859 8.3573 12.214C8.3573 12.5691 8.64512 12.8569 9.00016 12.8569Z" fill="url(#paint2_linear_890_12011)"/>
</g>
<defs>
<linearGradient id="paint0_linear_890_12011" x1="15.98" y1="0.642578" x2="0.643648" y2="16.1181" gradientUnits="userSpaceOnUse">
<stop stop-color="#A941FB"/>
<stop offset="1" stop-color="#7864F0" stop-opacity="0.92"/>
</linearGradient>
<linearGradient id="paint1_linear_890_12011" x1="9.9176" y1="5" x2="8.17655" y2="5.43921" gradientUnits="userSpaceOnUse">
<stop stop-color="#A941FB"/>
<stop offset="1" stop-color="#7864F0" stop-opacity="0.92"/>
</linearGradient>
<linearGradient id="paint2_linear_890_12011" x1="9.53707" y1="11.5712" x2="8.35734" y2="12.7616" gradientUnits="userSpaceOnUse">
<stop stop-color="#A941FB"/>
<stop offset="1" stop-color="#7864F0" stop-opacity="0.92"/>
</linearGradient>
<clipPath id="clip0_890_12011">
<rect width="18" height="18" fill="white"/>
</clipPath>
</defs>
</svg>
