<svg width="24" height="24" viewBox="0 0 24 24" fill="none" xmlns="http://www.w3.org/2000/svg">
<path d="M4.45218 2.89779C3.71951 3.09209 3.15281 3.7357 3.03947 4.50481C2.98684 4.88936 2.98684 16.9926 3.03947 17.3771C3.08804 17.7091 3.28639 18.1503 3.50093 18.3932C3.68308 18.6036 4.02311 18.8344 4.3267 18.9477C4.55338 19.0327 4.59791 19.0368 7.2088 19.0489L9.86018 19.0611L10.7912 19.984C11.3053 20.494 11.7627 20.9312 11.8113 20.9555C11.8598 20.9798 11.9934 21 12.1068 21C12.2201 21 12.3537 20.9798 12.4023 20.9555C12.4508 20.9312 12.9123 20.494 13.4223 19.984L14.3533 19.0611L15.7094 19.0449C17.2395 19.0327 17.28 19.0246 17.7333 18.721C18.041 18.5186 18.3284 18.1624 18.4701 17.8143L18.5632 17.5795L18.5753 14.159L18.5834 10.7386L19.6359 9.68612C20.5385 8.77939 20.7005 8.59723 20.8057 8.37865C21.0648 7.82004 21.0648 7.19261 20.8057 6.63805C20.7005 6.41137 20.5831 6.26969 20.1054 5.80013C19.4861 5.18081 19.2715 5.04318 18.8303 4.95817L18.5834 4.9096V4.7072C18.5834 3.85309 17.9155 3.05161 17.0533 2.86945C16.8995 2.83707 15.1224 2.82493 10.7791 2.82898C5.18485 2.82898 4.69911 2.83302 4.45218 2.89779ZM16.9197 4.24574C17.1707 4.38742 17.2274 4.50076 17.2395 4.88936L17.2516 5.23343L14.5436 7.94147C12.5277 9.95328 11.7951 10.7102 11.6898 10.8843C11.5724 11.0867 11.4874 11.3822 11.1393 12.7625C10.9167 13.6652 10.7305 14.4667 10.7305 14.5476C10.7305 14.9079 11.0017 15.171 11.37 15.171C11.6413 15.171 14.5841 14.4384 14.8998 14.2926C15.0779 14.2076 15.3289 13.9809 16.187 13.1309L17.2476 12.0744L17.2395 14.7055C17.2274 17.2638 17.2233 17.3407 17.1464 17.4459C17.1019 17.5067 17.0007 17.5876 16.9238 17.6321C16.7902 17.7091 16.6809 17.7131 15.3248 17.7293C14.236 17.7414 13.8433 17.7576 13.7664 17.7981C13.7097 17.8264 13.313 18.1989 12.884 18.6239L12.1068 19.4011L11.3053 18.6036C10.8681 18.1665 10.4552 17.786 10.3945 17.7617C10.3176 17.7374 9.36229 17.7212 7.58121 17.7212C5.03508 17.7212 4.87317 17.7131 4.7153 17.6443C4.6141 17.5957 4.5129 17.5107 4.45218 17.4136L4.35503 17.2557L4.34289 11.03C4.33884 6.90521 4.34694 4.74768 4.37527 4.64648C4.4279 4.45218 4.54124 4.31051 4.7072 4.22955C4.82864 4.16883 5.38725 4.16073 10.8074 4.16073C16.7618 4.16073 16.7699 4.16073 16.9197 4.24574ZM18.6441 6.30207C18.8708 6.40732 19.5711 7.13189 19.6359 7.33024C19.7128 7.57311 19.6601 7.74313 19.4213 7.9941L19.2149 8.21268L18.4539 7.45168L17.6929 6.69472L17.8467 6.53685C18.0046 6.37089 18.2636 6.22516 18.4012 6.22516C18.4458 6.22516 18.5551 6.26159 18.6441 6.30207ZM16.6809 10.7386L15.1022 12.3173L14.3453 11.5562L13.5842 10.7993L15.1629 9.22061L16.7416 7.64193L17.4986 8.39889L18.2596 9.15989L16.6809 10.7386ZM13.9971 13.1714C13.9769 13.1916 12.3375 13.5964 12.3253 13.5842C12.3213 13.5762 12.4104 13.1916 12.5237 12.7301L12.7342 11.8922L13.3697 12.5277C13.7178 12.8759 14.0012 13.1673 13.9971 13.1714Z" fill="#B0B0B0"/>
<path d="M5.91347 8.13981C5.51273 8.40698 5.51273 8.98178 5.91347 9.24894L6.04705 9.34204H8.86844H11.6898L11.8275 9.24894C12.1999 9.00202 12.1999 8.39483 11.8234 8.13577L11.6898 8.04671H8.86844H6.04705L5.91347 8.13981Z" fill="#B0B0B0"/>
<path d="M5.91347 10.7305C5.51273 10.9976 5.51273 11.5724 5.91347 11.8396L6.04705 11.9327H8.05886H10.0707L10.2083 11.8396C10.5807 11.5927 10.5807 10.9855 10.2042 10.7264L10.0707 10.6374H8.05886H6.04705L5.91347 10.7305Z" fill="#B0B0B0"/>
<path d="M5.91326 13.322C5.5128 13.5889 5.5128 14.1633 5.91326 14.4303C6.04675 14.5234 6.05484 14.5234 7.57176 14.5234C9.08868 14.5234 9.09677 14.5234 9.23431 14.4303C9.60646 14.1836 9.60646 13.5768 9.23026 13.3179C9.09677 13.2289 9.08868 13.2289 7.57176 13.2289C6.05484 13.2289 6.04675 13.2289 5.91326 13.322Z" fill="#B0B0B0"/>
</svg>
