<svg width="13" height="15" viewBox="0 0 13 15" fill="none" xmlns="http://www.w3.org/2000/svg">
<path d="M11.1161 8.03064L5.80427 13.5537C5.22156 14.1596 4.43124 14.5 3.60717 14.5C2.7831 14.5 1.99278 14.1596 1.41007 13.5537C0.827361 12.9479 0.5 12.1261 0.5 11.2693C0.5 10.4124 0.827361 9.59066 1.41007 8.98478L8.96389 1.13053C9.1563 0.930562 9.38471 0.771956 9.63608 0.663769C9.88744 0.555582 10.1568 0.499933 10.4289 0.5C10.7009 0.500067 10.9703 0.555847 11.2216 0.664158C11.4729 0.772468 11.7013 0.931186 11.8936 1.13125C12.0859 1.33131 12.2384 1.56881 12.3425 1.83017C12.4465 2.09153 12.5001 2.37164 12.5 2.65451C12.4999 2.93737 12.4463 3.21746 12.3421 3.47877C12.238 3.74008 12.0853 3.97749 11.8929 4.17746L4.33355 12.0375M4.33355 12.0375L4.33976 12.0303M4.33355 12.0375C4.13744 12.2329 3.87532 12.3398 3.60368 12.3362C3.33203 12.3326 3.07262 12.2182 2.88134 12.0176C2.69006 11.817 2.58223 11.5463 2.58109 11.2639C2.57996 10.9814 2.6856 10.7098 2.87526 10.5075L8.26789 4.90043" stroke="#4A4A4A" stroke-linecap="round" stroke-linejoin="round"/>
</svg>
