<svg width="24" height="24" viewBox="0 0 24 24" fill="none" xmlns="http://www.w3.org/2000/svg">
<path d="M19.4148 6.09128L15.9443 2.62081C15.7479 2.4234 15.5144 2.26689 15.2571 2.16033C14.9999 2.05377 14.7241 1.99928 14.4456 2.00001H7.94899C7.38668 2.00054 6.84756 2.22415 6.44994 2.62177C6.05233 3.01938 5.82872 3.5585 5.82819 4.12081V4.83222H5.11678C4.55559 4.83293 4.01759 5.05618 3.62077 5.453C3.22396 5.84981 3.00071 6.38781 3 6.949V19.8832C3.00071 20.4444 3.22396 20.9824 3.62077 21.3792C4.01759 21.776 4.55559 21.9993 5.11678 22H15.0913C15.6525 21.9993 16.1905 21.776 16.5873 21.3792C16.9841 20.9824 17.2073 20.4444 17.208 19.8832V19.1698H17.9154C18.4772 19.1691 19.0158 18.9457 19.4131 18.5485C19.8104 18.1513 20.034 17.6128 20.0349 17.051V7.5886C20.0349 7.03155 19.8087 6.48524 19.4148 6.09128ZM17.9705 6.35571H16.5839C16.0846 6.35571 15.6778 5.94967 15.6778 5.44967V4.06309L17.9705 6.35571ZM16 19.8832C16 20.3846 15.5926 20.7919 15.0913 20.7919H5.11678C4.87588 20.7916 4.64495 20.6957 4.4746 20.5254C4.30426 20.3551 4.20841 20.1241 4.20805 19.8832V6.949C4.20805 6.44766 4.61544 6.04027 5.11678 6.04027H5.82886V17.0517C5.82957 17.6133 6.05305 18.1518 6.45026 18.5489C6.84748 18.946 7.38599 19.1693 7.94765 19.1698H16V19.8832ZM18.8268 17.051C18.8268 17.5537 18.4188 17.9617 17.9161 17.9617H7.94765C7.70634 17.9616 7.47496 17.8656 7.30433 17.695C7.1337 17.5244 7.03776 17.293 7.03758 17.0517V4.12081C7.03758 3.61746 7.44631 3.20806 7.94966 3.20806H14.4463C14.4544 3.20806 14.4617 3.21276 14.4698 3.21276V5.44967C14.4703 6.0102 14.6932 6.54762 15.0896 6.94397C15.4859 7.34032 16.0234 7.56323 16.5839 7.56376H18.8215C18.8215 7.57249 18.8262 7.57987 18.8262 7.5886V17.051H18.8268Z" fill="#B0B0B0"/>
<path d="M9.65694 10.5067H12.265C12.4252 10.5067 12.5788 10.4431 12.6921 10.3298C12.8054 10.2165 12.869 10.0629 12.869 9.90269C12.869 9.74249 12.8054 9.58885 12.6921 9.47558C12.5788 9.3623 12.4252 9.29866 12.265 9.29866H9.65694C9.49675 9.29866 9.34311 9.3623 9.22983 9.47558C9.11656 9.58885 9.05292 9.74249 9.05292 9.90269C9.05292 10.0629 9.11656 10.2165 9.22983 10.3298C9.34311 10.4431 9.49675 10.5067 9.65694 10.5067ZM16.2066 12.1597H9.65627C9.49608 12.1597 9.34244 12.2234 9.22916 12.3366C9.11588 12.4499 9.05225 12.6036 9.05225 12.7638C9.05225 12.924 9.11588 13.0776 9.22916 13.1909C9.34244 13.3041 9.49608 13.3678 9.65627 13.3678H16.2066C16.3668 13.3678 16.5204 13.3041 16.6337 13.1909C16.747 13.0776 16.8106 12.924 16.8106 12.7638C16.8106 12.6036 16.747 12.4499 16.6337 12.3366C16.5204 12.2234 16.3668 12.1597 16.2066 12.1597ZM14.8308 15.0208H9.65694C9.49675 15.0208 9.34311 15.0844 9.22983 15.1977C9.11656 15.311 9.05292 15.4646 9.05292 15.6248C9.05292 15.785 9.11656 15.9387 9.22983 16.0519C9.34311 16.1652 9.49675 16.2289 9.65694 16.2289H14.8308C14.991 16.2289 15.1446 16.1652 15.2579 16.0519C15.3712 15.9387 15.4348 15.785 15.4348 15.6248C15.4348 15.4646 15.3712 15.311 15.2579 15.1977C15.1446 15.0844 14.991 15.0208 14.8308 15.0208Z" fill="#B0B0B0"/>
</svg>
