<svg width="18" height="20" viewBox="0 0 18 20" fill="none" xmlns="http://www.w3.org/2000/svg">
<path d="M16.4148 4.09128L12.9443 0.620812C12.7479 0.423403 12.5144 0.266891 12.2571 0.160332C11.9999 0.0537717 11.7241 -0.000720651 11.4456 7.19612e-06H4.94899C4.38668 0.000540275 3.84756 0.224153 3.44994 0.621765C3.05233 1.01938 2.82872 1.5585 2.82819 2.12081V2.83222H2.11678C1.55559 2.83293 1.01759 3.05618 0.620775 3.453C0.223956 3.84981 0.000710363 4.38781 0 4.949V17.8832C0.000710363 18.4444 0.223956 18.9824 0.620775 19.3792C1.01759 19.776 1.55559 19.9993 2.11678 20H12.0913C12.6525 19.9993 13.1905 19.776 13.5873 19.3792C13.9841 18.9824 14.2073 18.4444 14.208 17.8832V17.1698H14.9154C15.4772 17.1691 16.0158 16.9457 16.4131 16.5485C16.8104 16.1513 17.034 15.6128 17.0349 15.051V5.5886C17.0349 5.03155 16.8087 4.48524 16.4148 4.09128ZM14.9705 4.35571H13.5839C13.0846 4.35571 12.6778 3.94967 12.6778 3.44967V2.06309L14.9705 4.35571ZM13 17.8832C13 18.3846 12.5926 18.7919 12.0913 18.7919H2.11678C1.87588 18.7916 1.64495 18.6957 1.4746 18.5254C1.30426 18.3551 1.20841 18.1241 1.20805 17.8832V4.949C1.20805 4.44766 1.61544 4.04027 2.11678 4.04027H2.82886V15.0517C2.82957 15.6133 3.05305 16.1518 3.45026 16.5489C3.84748 16.946 4.38599 17.1693 4.94765 17.1698H13V17.8832ZM15.8268 15.051C15.8268 15.5537 15.4188 15.9617 14.9161 15.9617H4.94765C4.70634 15.9616 4.47496 15.8656 4.30433 15.695C4.1337 15.5244 4.03776 15.293 4.03758 15.0517V2.12081C4.03758 1.61746 4.44631 1.20806 4.94966 1.20806H11.4463C11.4544 1.20806 11.4617 1.21276 11.4698 1.21276V3.44967C11.4703 4.0102 11.6932 4.54762 12.0896 4.94397C12.4859 5.34032 13.0234 5.56323 13.5839 5.56376H15.8215C15.8215 5.57249 15.8262 5.57987 15.8262 5.5886V15.051H15.8268Z" fill="#4A4A4A"/>
<path d="M6.65694 8.5067H9.265C9.42519 8.5067 9.57883 8.44306 9.69211 8.32978C9.80539 8.21651 9.86902 8.06287 9.86902 7.90267C9.86902 7.74247 9.80539 7.58884 9.69211 7.47556C9.57883 7.36228 9.42519 7.29865 9.265 7.29865H6.65694C6.49675 7.29865 6.34311 7.36228 6.22983 7.47556C6.11656 7.58884 6.05292 7.74247 6.05292 7.90267C6.05292 8.06287 6.11656 8.21651 6.22983 8.32978C6.34311 8.44306 6.49675 8.5067 6.65694 8.5067ZM13.2066 10.1597H6.65627C6.49608 10.1597 6.34244 10.2234 6.22916 10.3366C6.11588 10.4499 6.05225 10.6035 6.05225 10.7637C6.05225 10.9239 6.11588 11.0776 6.22916 11.1909C6.34244 11.3041 6.49608 11.3678 6.65627 11.3678H13.2066C13.3668 11.3678 13.5204 11.3041 13.6337 11.1909C13.747 11.0776 13.8106 10.9239 13.8106 10.7637C13.8106 10.6035 13.747 10.4499 13.6337 10.3366C13.5204 10.2234 13.3668 10.1597 13.2066 10.1597ZM11.8308 13.0208H6.65694C6.49675 13.0208 6.34311 13.0844 6.22983 13.1977C6.11656 13.311 6.05292 13.4646 6.05292 13.6248C6.05292 13.785 6.11656 13.9387 6.22983 14.0519C6.34311 14.1652 6.49675 14.2288 6.65694 14.2288H11.8308C11.991 14.2288 12.1446 14.1652 12.2579 14.0519C12.3712 13.9387 12.4348 13.785 12.4348 13.6248C12.4348 13.4646 12.3712 13.311 12.2579 13.1977C12.1446 13.0844 11.991 13.0208 11.8308 13.0208Z" fill="#4A4A4A"/>
</svg>
