<svg width="12" height="12" viewBox="0 0 12 12" fill="none" xmlns="http://www.w3.org/2000/svg">
<path d="M11.3712 0.62872C10.9686 0.226157 10.4226 0 9.85327 0C9.28392 0 8.73788 0.226157 8.33529 0.62872L1.1642 7.79938C0.920475 8.04311 0.749127 8.34964 0.669203 8.68492L0.0122132 11.4459C-0.0055756 11.5207 -0.00390778 11.5988 0.0170577 11.6727C0.0380231 11.7467 0.0775871 11.8141 0.131976 11.8684C0.186365 11.9227 0.253766 11.9622 0.327751 11.9831C0.401735 12.004 0.479836 12.0055 0.554605 11.9877L3.31516 11.3301C3.65067 11.2503 3.95745 11.079 4.20135 10.8352L11.3712 3.66569C11.7738 3.26312 12 2.71712 12 2.14781C12 1.57849 11.7738 1.03129 11.3712 0.62872ZM8.97128 1.26467C9.0871 1.14885 9.22461 1.05698 9.37594 0.994304C9.52727 0.931624 9.68947 0.899363 9.85327 0.899363C10.0171 0.899363 10.1793 0.931624 10.3306 0.994304C10.4819 1.05698 10.6194 1.14885 10.7353 1.26467C10.8511 1.38049 10.943 1.51798 11.0056 1.66931C11.0683 1.82063 11.1006 1.98282 11.1006 2.14661C11.1006 2.3104 11.0683 2.47258 11.0056 2.6239C10.943 2.77523 10.8511 2.91272 10.7353 3.02854L10.2001 3.5631L8.43609 1.79983L8.97128 1.26467ZM7.8001 2.43698L9.56407 4.19965L3.56416 10.1992C3.43816 10.3252 3.27976 10.4134 3.10637 10.4548L1.0568 10.9431L1.54459 8.8937C1.58599 8.71971 1.67479 8.56133 1.80079 8.43534L7.8001 2.43698Z" fill="#404040"/>
</svg>
