<svg width="2" height="12" viewBox="0 0 2 12" fill="none" xmlns="http://www.w3.org/2000/svg">
<path fill-rule="evenodd" clip-rule="evenodd" d="M0 1.0582C0 0.777549 0.105007 0.508391 0.29192 0.30994C0.478833 0.111489 0.732342 0 0.996678 0H1.00332C1.26766 0 1.52117 0.111489 1.70808 0.30994C1.89499 0.508391 2 0.777549 2 1.0582V1.06526C2 1.34591 1.89499 1.61507 1.70808 1.81352C1.52117 2.01197 1.26766 2.12346 1.00332 2.12346H0.996678C0.732342 2.12346 0.478833 2.01197 0.29192 1.81352C0.105007 1.61507 0 1.34591 0 1.06526V1.0582ZM0 5.99647C0 5.71582 0.105007 5.44666 0.29192 5.24821C0.478833 5.04976 0.732342 4.93827 0.996678 4.93827H1.00332C1.26766 4.93827 1.52117 5.04976 1.70808 5.24821C1.89499 5.44666 2 5.71582 2 5.99647V6.00353C2 6.28418 1.89499 6.55334 1.70808 6.75179C1.52117 6.95024 1.26766 7.06173 1.00332 7.06173H0.996678C0.732342 7.06173 0.478833 6.95024 0.29192 6.75179C0.105007 6.55334 0 6.28418 0 6.00353V5.99647ZM0.996678 9.87654C0.732342 9.87654 0.478833 9.98803 0.29192 10.1865C0.105007 10.3849 0 10.6541 0 10.9347V10.9418C0 11.2225 0.105007 11.4916 0.29192 11.6901C0.478833 11.8885 0.732342 12 0.996678 12H1.00332C1.26766 12 1.52117 11.8885 1.70808 11.6901C1.89499 11.4916 2 11.2225 2 10.9418V10.9347C2 10.6541 1.89499 10.3849 1.70808 10.1865C1.52117 9.98803 1.26766 9.87654 1.00332 9.87654H0.996678Z" fill="#4A4A4A"/>
</svg>
