<svg width="26" height="26" viewBox="0 0 26 26" fill="none" xmlns="http://www.w3.org/2000/svg">
<path d="M13 7.02396C12.6981 7.02386 12.4036 7.12233 12.1571 7.3058C11.9106 7.48927 11.7242 7.74871 11.6236 8.04838C11.579 8.17434 11.4893 8.27682 11.3737 8.33374C11.258 8.39066 11.1258 8.39745 11.0054 8.35264C10.8851 8.30784 10.7863 8.21503 10.7304 8.09424C10.6744 7.97344 10.6658 7.83433 10.7064 7.70691C10.8742 7.20768 11.1849 6.77548 11.5956 6.46981C12.0064 6.16413 12.497 6 13 6C13.503 6 13.9936 6.16413 14.4044 6.46981C14.8151 6.77548 15.1258 7.20768 15.2936 7.70691C15.3342 7.83433 15.3256 7.97344 15.2696 8.09424C15.2137 8.21503 15.1149 8.30784 14.9946 8.35264C14.8742 8.39745 14.742 8.39066 14.6263 8.33374C14.5107 8.27682 14.421 8.17434 14.3764 8.04838C14.2757 7.74877 14.0893 7.48939 13.8428 7.30593C13.5963 7.12247 13.3019 7.02396 13 7.02396ZM7 9.24355C7 9.1077 7.05125 8.97741 7.14249 8.88136C7.23372 8.7853 7.35746 8.73133 7.48649 8.73133H18.5135C18.6425 8.73133 18.7663 8.7853 18.8575 8.88136C18.9487 8.97741 19 9.1077 19 9.24355C19 9.37939 18.9487 9.50968 18.8575 9.60573C18.7663 9.70179 18.6425 9.75576 18.5135 9.75576H7.48649C7.35746 9.75576 7.23372 9.70179 7.14249 9.60573C7.05125 9.50968 7 9.37939 7 9.24355ZM9.05297 10.9168C9.04437 10.7812 8.98497 10.6548 8.88784 10.5653C8.7907 10.4758 8.66379 10.4307 8.53503 10.4397C8.40626 10.4488 8.28619 10.5113 8.20122 10.6136C8.11625 10.7159 8.07334 10.8495 8.08195 10.9851L8.38292 15.7329C8.43805 16.6085 8.48281 17.316 8.58789 17.8719C8.69751 18.449 8.88303 18.9312 9.26703 19.3089C9.65038 19.6872 10.12 19.8504 10.6746 19.9262C11.2078 20 11.8811 20 12.7152 20H13.2854C14.1189 20 14.7929 20 15.3261 19.9262C15.88 19.8504 16.3496 19.6872 16.7336 19.3089C17.117 18.9312 17.3025 18.4483 17.4121 17.8719C17.5172 17.316 17.5613 16.6085 17.6171 15.7329L17.9181 10.9851C17.9267 10.8495 17.8838 10.7159 17.7988 10.6136C17.7138 10.5113 17.5937 10.4488 17.465 10.4397C17.3362 10.4307 17.2093 10.4758 17.1122 10.5653C17.015 10.6548 16.9556 10.7812 16.947 10.9168L16.6486 15.6291C16.5903 16.5491 16.5488 17.1897 16.4579 17.6711C16.3691 18.139 16.2458 18.3862 16.0688 18.561C15.891 18.7359 15.6484 18.8492 15.1996 18.9107C14.7371 18.9742 14.1274 18.9756 13.251 18.9756H12.749C11.8733 18.9756 11.2636 18.9742 10.8004 18.9107C10.3516 18.8492 10.109 18.7359 9.93124 18.561C9.75416 18.3862 9.63092 18.139 9.54205 17.6711C9.45124 17.1897 9.40973 16.5491 9.35135 15.6291L9.05297 10.9168Z" fill="#F13434"/>
<path d="M11.3297 12.1488C11.4581 12.1353 11.5862 12.1759 11.6861 12.2619C11.786 12.3478 11.8493 12.472 11.8623 12.6071L12.1866 16.0218C12.1961 16.1551 12.1558 16.2869 12.0742 16.3893C11.9927 16.4917 11.8764 16.5564 11.7501 16.5698C11.6239 16.5832 11.4977 16.5441 11.3984 16.4608C11.2991 16.3776 11.2347 16.2568 11.2188 16.1243L10.8945 12.7095C10.8816 12.5744 10.9202 12.4394 11.0019 12.3343C11.0835 12.2292 11.2014 12.1624 11.3297 12.1488ZM15.1055 12.7095C15.115 12.5763 15.0747 12.4444 14.9932 12.342C14.9116 12.2397 14.7953 12.1749 14.6691 12.1615C14.5428 12.1482 14.4166 12.1873 14.3173 12.2705C14.2181 12.3537 14.1536 12.4745 14.1377 12.6071L13.8134 16.0218C13.8039 16.1551 13.8442 16.2869 13.9258 16.3893C14.0073 16.4917 14.1236 16.5564 14.2499 16.5698C14.3761 16.5832 14.5023 16.5441 14.6016 16.4608C14.7009 16.3776 14.7653 16.2568 14.7812 16.1243L15.1055 12.7095Z" fill="#F13434"/>
</svg>
