<svg width="20" height="20" viewBox="0 0 20 20" fill="none" xmlns="http://www.w3.org/2000/svg">
<path d="M4.58333 5.83332C4.58333 5.50502 4.648 5.17993 4.77363 4.87661C4.89927 4.5733 5.08342 4.2977 5.31557 4.06556C5.54771 3.83341 5.82331 3.64926 6.12662 3.52362C6.42994 3.39799 6.75503 3.33332 7.08333 3.33332C7.41164 3.33332 7.73673 3.39799 8.04004 3.52362C8.34336 3.64926 8.61895 3.83341 8.8511 4.06556C9.08325 4.2977 9.2674 4.5733 9.39303 4.87661C9.51867 5.17993 9.58333 5.50502 9.58333 5.83332C9.58333 6.49636 9.31994 7.13225 8.8511 7.60109C8.38226 8.06993 7.74637 8.33332 7.08333 8.33332C6.42029 8.33332 5.78441 8.06993 5.31557 7.60109C4.84673 7.13225 4.58333 6.49636 4.58333 5.83332ZM7.08333 1.66666C5.97826 1.66666 4.91846 2.10564 4.13705 2.88704C3.35565 3.66845 2.91667 4.72825 2.91667 5.83332C2.91667 6.93839 3.35565 7.9982 4.13705 8.7796C4.91846 9.561 5.97826 9.99999 7.08333 9.99999C8.1884 9.99999 9.24821 9.561 10.0296 8.7796C10.811 7.9982 11.25 6.93839 11.25 5.83332C11.25 4.72825 10.811 3.66845 10.0296 2.88704C9.24821 2.10564 8.1884 1.66666 7.08333 1.66666ZM12.9167 1.66666H12.0833V3.33332H12.9167C13.245 3.33332 13.5701 3.39799 13.8734 3.52362C14.1767 3.64926 14.4523 3.83341 14.6844 4.06556C14.9166 4.2977 15.1007 4.5733 15.2264 4.87661C15.352 5.17993 15.4167 5.50502 15.4167 5.83332C15.4167 6.16163 15.352 6.48672 15.2264 6.79003C15.1007 7.09335 14.9166 7.36894 14.6844 7.60109C14.4523 7.83324 14.1767 8.01739 13.8734 8.14302C13.5701 8.26866 13.245 8.33332 12.9167 8.33332H12.0833V9.99999H12.9167C14.0217 9.99999 15.0815 9.561 15.8629 8.7796C16.6443 7.9982 17.0833 6.93839 17.0833 5.83332C17.0833 4.72825 16.6443 3.66845 15.8629 2.88704C15.0815 2.10564 14.0217 1.66666 12.9167 1.66666ZM0 15.8333C0 14.7283 0.438987 13.6684 1.22039 12.887C2.00179 12.1056 3.0616 11.6667 4.16667 11.6667H10C11.1051 11.6667 12.1649 12.1056 12.9463 12.887C13.7277 13.6684 14.1667 14.7283 14.1667 15.8333V17.5H12.5V15.8333C12.5 15.1703 12.2366 14.5344 11.7678 14.0656C11.2989 13.5967 10.663 13.3333 10 13.3333H4.16667C3.50363 13.3333 2.86774 13.5967 2.3989 14.0656C1.93006 14.5344 1.66667 15.1703 1.66667 15.8333V17.5H0V15.8333ZM20 15.8333C20 15.2861 19.8922 14.7443 19.6828 14.2388C19.4734 13.7333 19.1665 13.274 18.7796 12.887C18.3927 12.5001 17.9334 12.1932 17.4278 11.9838C16.9223 11.7744 16.3805 11.6667 15.8333 11.6667H15V13.3333H15.8333C16.4964 13.3333 17.1323 13.5967 17.6011 14.0656C18.0699 14.5344 18.3333 15.1703 18.3333 15.8333V17.5H20V15.8333Z" fill="#B0B0B0"/>
</svg>
