<svg width="18" height="19" viewBox="0 0 18 19" fill="none" xmlns="http://www.w3.org/2000/svg">
<path d="M1.45218 0.0695724C0.719514 0.263872 0.152808 0.907488 0.039467 1.67659C-0.0131557 2.06114 -0.0131557 14.1644 0.039467 14.5489C0.0880418 14.8808 0.286389 15.3221 0.500928 15.5649C0.683083 15.7754 1.02311 16.0062 1.3267 16.1195C1.55338 16.2045 1.59791 16.2086 4.2088 16.2207L6.86018 16.2328L7.7912 17.1558C8.30528 17.6658 8.76269 18.103 8.81127 18.1273C8.85984 18.1515 8.99342 18.1718 9.10676 18.1718C9.2201 18.1718 9.35368 18.1515 9.40226 18.1273C9.45083 18.103 9.9123 17.6658 10.4223 17.1558L11.3533 16.2328L12.7094 16.2166C14.2395 16.2045 14.28 16.1964 14.7333 15.8928C15.041 15.6904 15.3284 15.3342 15.4701 14.9861L15.5632 14.7513L15.5753 11.3308L15.5834 7.91036L16.6359 6.8579C17.5385 5.95117 17.7005 5.76902 17.8057 5.55043C18.0648 4.99182 18.0648 4.3644 17.8057 3.80983C17.7005 3.58315 17.5831 3.44147 17.1054 2.97192C16.4861 2.35259 16.2715 2.21496 15.8303 2.12995L15.5834 2.08138V1.87898C15.5834 1.02488 14.9155 0.223392 14.0533 0.0412369C13.8995 0.00885391 12.1224 -0.00329018 7.77905 0.000759125C2.18485 0.000759125 1.69911 0.00480652 1.45218 0.0695724ZM13.9197 1.41752C14.1707 1.5592 14.2274 1.67254 14.2395 2.06114L14.2516 2.40521L11.5436 5.11326C9.52774 7.12506 8.79507 7.88202 8.68983 8.05608C8.57244 8.25848 8.48743 8.55397 8.13931 9.93431C7.91668 10.837 7.73048 11.6385 7.73048 11.7194C7.73048 12.0797 8.00169 12.3428 8.37004 12.3428C8.64125 12.3428 11.5841 11.6101 11.8998 11.4644C12.0779 11.3794 12.3289 11.1527 13.187 10.3027L14.2476 9.24616L14.2395 11.8773C14.2274 14.4356 14.2233 14.5125 14.1464 14.6177C14.1019 14.6784 14.0007 14.7594 13.9238 14.8039C13.7902 14.8808 13.6809 14.8849 12.3248 14.9011C11.236 14.9132 10.8433 14.9294 10.7664 14.9699C10.7097 14.9982 10.313 15.3706 9.88396 15.7957L9.10676 16.5729L8.30528 15.7754C7.86811 15.3383 7.45522 14.9578 7.3945 14.9335C7.31759 14.9092 6.36229 14.893 4.58121 14.893C2.03508 14.893 1.87317 14.8849 1.7153 14.8161C1.6141 14.7675 1.5129 14.6825 1.45218 14.5853L1.35503 14.4275L1.34289 8.20181C1.33884 4.07699 1.34694 1.91946 1.37527 1.81827C1.4279 1.62397 1.54124 1.48229 1.7072 1.40133C1.82864 1.34061 2.38725 1.33252 7.80739 1.33252C13.7618 1.33252 13.7699 1.33252 13.9197 1.41752ZM15.6441 3.47386C15.8708 3.5791 16.5711 4.30368 16.6359 4.50202C16.7128 4.7449 16.6601 4.91491 16.4213 5.16588L16.2149 5.38447L15.4539 4.62346L14.6929 3.8665L14.8467 3.70864C15.0046 3.54267 15.2636 3.39695 15.4012 3.39695C15.4458 3.39695 15.5551 3.43338 15.6441 3.47386ZM13.6809 7.91036L12.1022 9.48904L11.3453 8.72803L10.5842 7.97107L12.1629 6.39239L13.7416 4.81371L14.4986 5.57067L15.2596 6.33167L13.6809 7.91036ZM10.9971 10.3431C10.9769 10.3634 9.33749 10.7682 9.32535 10.756C9.3213 10.7479 9.41036 10.3634 9.5237 9.90192L9.73419 9.06401L10.3697 9.69953C10.7178 10.0476 11.0012 10.3391 10.9971 10.3431Z" fill="#B0B0B0"/>
<path d="M2.91359 5.3116C2.51285 5.57876 2.51285 6.15356 2.91359 6.42072L3.04717 6.51382H5.86856H8.68995L8.82758 6.42072C9.19998 6.1738 9.19998 5.56662 8.82353 5.30755L8.68995 5.2185H5.86856H3.04717L2.91359 5.3116Z" fill="#B0B0B0"/>
<path d="M2.91359 7.90227C2.51285 8.16943 2.51285 8.74423 2.91359 9.01139L3.04717 9.10449H5.05898H7.07079L7.20842 9.01139C7.58082 8.76447 7.58082 8.15728 7.20437 7.89822L7.07079 7.80916H5.05898H3.04717L2.91359 7.90227Z" fill="#B0B0B0"/>
<path d="M2.91339 10.4937C2.51292 10.7607 2.51292 11.3351 2.91339 11.6021C3.04688 11.6951 3.05497 11.6951 4.57188 11.6951C6.0888 11.6951 6.09689 11.6951 6.23443 11.6021C6.60658 11.3553 6.60658 10.7486 6.23038 10.4897C6.09689 10.4007 6.0888 10.4007 4.57188 10.4007C3.05497 10.4007 3.04688 10.4007 2.91339 10.4937Z" fill="#B0B0B0"/>
</svg>
