<svg width="24" height="24" viewBox="0 0 24 24" fill="none" xmlns="http://www.w3.org/2000/svg">
<path d="M6.42489 14.6899H7.55222C7.66552 14.6899 7.77107 14.67 7.86889 14.6302C7.96741 14.5904 8.06241 14.524 8.15389 14.4309L13.4612 9.07294C13.552 8.96778 13.6199 8.85765 13.6649 8.74254C13.71 8.62743 13.7329 8.51303 13.7336 8.39934C13.7343 8.28565 13.7103 8.17303 13.6618 8.06147C13.6146 7.95062 13.5478 7.84226 13.4612 7.73639L12.4901 6.72385C12.4 6.63219 12.2955 6.56362 12.1766 6.51814C12.057 6.47267 11.9391 6.44993 11.823 6.44993C11.7104 6.44993 11.5971 6.47267 11.4831 6.51814C11.3691 6.56362 11.2597 6.63219 11.1548 6.72385L5.8285 12.0829C5.73702 12.1759 5.67157 12.2719 5.63217 12.3706C5.59276 12.4701 5.57306 12.5774 5.57306 12.6925V13.8298C5.57306 14.077 5.65398 14.2824 5.81583 14.4458C5.97768 14.6092 6.1807 14.6899 6.42489 14.6899ZM6.50617 13.7456V12.733L10.1457 9.05802L10.6334 9.57815L11.1284 10.0908L7.50894 13.7456H6.50617ZM10.6334 9.57815L11.1284 10.0908L10.1468 9.05696L10.6334 9.57815ZM11.2984 14.6888H16.9002C17.0501 14.6888 17.1754 14.6377 17.276 14.5353C17.3773 14.4337 17.428 14.3073 17.428 14.1559C17.428 14.0038 17.3773 13.877 17.276 13.7754C17.1754 13.6738 17.0498 13.623 16.8992 13.623H12.355L11.2984 14.6888ZM5.249 18.2967L3.45033 20.1128C3.18363 20.3821 2.87541 20.444 2.52567 20.2983C2.17593 20.1526 2.0007 19.888 2 19.5043V5.09739C2 4.60639 2.16291 4.19676 2.48872 3.86848C2.81454 3.5402 3.22022 3.37571 3.70578 3.375H19.2953C19.7808 3.375 20.1865 3.53949 20.5123 3.86848C20.8381 4.19747 21.0007 4.6071 21 5.09739V16.5753C21 17.0656 20.8374 17.4753 20.5123 17.8043C20.1872 18.1332 19.7815 18.2974 19.2953 18.2967H5.249ZM4.79828 17.2308H19.2963C19.4582 17.2308 19.607 17.1626 19.7428 17.0262C19.8786 16.8898 19.9462 16.7395 19.9455 16.5753V5.09632C19.9455 4.93289 19.8779 4.78261 19.7428 4.64547C19.6077 4.50834 19.4585 4.44012 19.2953 4.44083H3.70472C3.54287 4.44083 3.39404 4.50905 3.25822 4.64547C3.12241 4.7819 3.05485 4.93218 3.05556 5.09632V18.9841L4.79828 17.2308Z" fill="#B0B0B0"/>
<path d="M12.7994 8.4004L11.823 7.39319M10.6334 9.57815L10.1457 9.05802L6.50617 12.733V13.7456H7.50894L11.1284 10.0908M10.6334 9.57815L11.1284 10.0908M10.6334 9.57815L10.1468 9.05696L11.1284 10.0908M3.05556 17.2308V4.44083M6.42489 14.6899H7.55222C7.66552 14.6899 7.77107 14.67 7.86889 14.6302C7.96741 14.5904 8.06241 14.524 8.15389 14.4309L13.4612 9.07294C13.552 8.96778 13.6199 8.85765 13.6649 8.74254C13.71 8.62743 13.7329 8.51303 13.7336 8.39934C13.7343 8.28565 13.7103 8.17303 13.6618 8.06147C13.6146 7.95062 13.5478 7.84226 13.4612 7.73639L12.4901 6.72385C12.4 6.63219 12.2955 6.56362 12.1766 6.51814C12.057 6.47267 11.9391 6.44993 11.823 6.44993C11.7104 6.44993 11.5971 6.47267 11.4831 6.51814C11.3691 6.56362 11.2597 6.63219 11.1548 6.72385L5.8285 12.0829C5.73702 12.1759 5.67157 12.2719 5.63217 12.3706C5.59276 12.4701 5.57306 12.5774 5.57306 12.6925V13.8298C5.57306 14.077 5.65398 14.2824 5.81583 14.4458C5.97768 14.6092 6.1807 14.6899 6.42489 14.6899ZM11.2984 14.6888H16.9002C17.0501 14.6888 17.1754 14.6377 17.276 14.5353C17.3773 14.4337 17.428 14.3073 17.428 14.1559C17.428 14.0038 17.3773 13.877 17.276 13.7754C17.1754 13.6738 17.0498 13.623 16.8992 13.623H12.355L11.2984 14.6888ZM5.249 18.2967L3.45033 20.1128C3.18363 20.3821 2.87541 20.444 2.52567 20.2983C2.17593 20.1526 2.0007 19.888 2 19.5043V5.09739C2 4.60639 2.16291 4.19676 2.48872 3.86848C2.81454 3.5402 3.22022 3.37571 3.70578 3.375H19.2953C19.7808 3.375 20.1865 3.53949 20.5123 3.86848C20.8381 4.19747 21.0007 4.6071 21 5.09739V16.5753C21 17.0656 20.8374 17.4753 20.5123 17.8043C20.1872 18.1332 19.7815 18.2974 19.2953 18.2967H5.249ZM4.79828 17.2308H19.2963C19.4582 17.2308 19.607 17.1626 19.7428 17.0262C19.8786 16.8898 19.9462 16.7395 19.9455 16.5753V5.09632C19.9455 4.93289 19.8779 4.78261 19.7428 4.64547C19.6077 4.50834 19.4585 4.44012 19.2953 4.44083H3.70472C3.54287 4.44083 3.39404 4.50905 3.25822 4.64547C3.12241 4.7819 3.05485 4.93218 3.05556 5.09632V18.9841L4.79828 17.2308Z" stroke="#B0B0B0" stroke-width="0.3"/>
</svg>
