<svg width="13" height="9" viewBox="0 0 13 9" fill="none" xmlns="http://www.w3.org/2000/svg">
<path d="M0.155119 7.33817C-0.0448181 7.52864 -0.0524906 7.84513 0.137982 8.04507C0.328455 8.24501 0.644944 8.25268 0.844881 8.06221L0.155119 7.33817ZM3.6653 4.68473L4.01018 4.32271L3.6653 3.99415L3.32041 4.32271L3.6653 4.68473ZM5.92622 6.83863L5.58134 7.20065L5.93469 7.53727L6.27977 7.19218L5.92622 6.83863ZM0.844881 8.06221L4.01018 5.04675L3.32041 4.32271L0.155119 7.33817L0.844881 8.06221ZM3.32041 5.04675L5.58134 7.20065L6.2711 6.47661L4.01018 4.32271L3.32041 5.04675ZM6.27977 7.19218L12.2184 1.25358L11.5113 0.546471L5.57267 6.48507L6.27977 7.19218Z" fill="#4A4A4A"/>
<path d="M8.5 0.5H12.5001V4.5001" stroke="#4A4A4A" stroke-linecap="round"/>
</svg>
