<svg width="13" height="8" viewBox="0 0 13 8" fill="none" xmlns="http://www.w3.org/2000/svg">
<path d="M0.155119 6.79166C-0.0448181 6.98213 -0.0524906 7.29862 0.137982 7.49856C0.328455 7.6985 0.644944 7.70617 0.844881 7.5157L0.155119 6.79166ZM3.6653 4.13822L4.01018 3.7762L3.6653 3.44765L3.32041 3.7762L3.6653 4.13822ZM5.92622 6.29212L5.58134 6.65414L5.93469 6.99076L6.27977 6.64567L5.92622 6.29212ZM0.844881 7.5157L4.01018 4.50024L3.32041 3.7762L0.155119 6.79166L0.844881 7.5157ZM3.32041 4.50024L5.58134 6.65414L6.2711 5.9301L4.01018 3.7762L3.32041 4.50024ZM6.27977 6.64567L12.2184 0.707069L11.5113 -3.79384e-05L5.57267 5.93856L6.27977 6.64567Z" fill="#4A4A4A"/>
</svg>
