<svg width="19" height="21" viewBox="0 0 19 21" fill="none" xmlns="http://www.w3.org/2000/svg">
<path d="M9.25 1.49932C8.7846 1.49918 8.3306 1.64336 7.95056 1.91201C7.57052 2.18065 7.28313 2.56053 7.128 2.99932C7.05937 3.18375 6.921 3.33381 6.74273 3.41715C6.56447 3.50049 6.36059 3.51043 6.17506 3.44483C5.98954 3.37923 5.83722 3.24333 5.75097 3.06646C5.66472 2.88958 5.65144 2.6859 5.714 2.49932C5.97276 1.76832 6.45171 1.13549 7.08494 0.687909C7.71817 0.240328 8.47456 0 9.25 0C10.0254 0 10.7818 0.240328 11.4151 0.687909C12.0483 1.13549 12.5272 1.76832 12.786 2.49932C12.8486 2.6859 12.8353 2.88958 12.749 3.06646C12.6628 3.24333 12.5105 3.37923 12.3249 3.44483C12.1394 3.51043 11.9355 3.50049 11.7573 3.41715C11.579 3.33381 11.4406 3.18375 11.372 2.99932C11.2167 2.56061 10.9293 2.18081 10.5493 1.91219C10.1693 1.64357 9.71537 1.49932 9.25 1.49932ZM0 4.74932C0 4.55041 0.0790175 4.35964 0.21967 4.21899C0.360322 4.07834 0.551088 3.99932 0.75 3.99932H17.75C17.9489 3.99932 18.1397 4.07834 18.2803 4.21899C18.421 4.35964 18.5 4.55041 18.5 4.74932C18.5 4.94823 18.421 5.139 18.2803 5.27965C18.1397 5.4203 17.9489 5.49932 17.75 5.49932H0.75C0.551088 5.49932 0.360322 5.4203 0.21967 5.27965C0.0790175 5.139 0 4.94823 0 4.74932ZM3.165 7.19932C3.15174 7.0008 3.06016 6.81569 2.91041 6.68469C2.76067 6.5537 2.56501 6.48756 2.3665 6.50082C2.16799 6.51408 1.98287 6.60566 1.85188 6.75541C1.72088 6.90515 1.65474 7.1008 1.668 7.29932L2.132 14.2513C2.217 15.5333 2.286 16.5693 2.448 17.3833C2.617 18.2283 2.903 18.9343 3.495 19.4873C4.086 20.0413 4.81 20.2803 5.665 20.3913C6.487 20.4993 7.525 20.4993 8.811 20.4993H9.69C10.975 20.4993 12.014 20.4993 12.836 20.3913C13.69 20.2803 14.414 20.0413 15.006 19.4873C15.597 18.9343 15.883 18.2273 16.052 17.3833C16.214 16.5693 16.282 15.5333 16.368 14.2513L16.832 7.29932C16.8453 7.1008 16.7791 6.90515 16.6481 6.75541C16.5171 6.60566 16.332 6.51408 16.1335 6.50082C15.935 6.48756 15.7393 6.5537 15.5896 6.68469C15.4398 6.81569 15.3483 7.0008 15.335 7.19932L14.875 14.0993C14.785 15.4463 14.721 16.3843 14.581 17.0893C14.444 17.7743 14.254 18.1363 13.981 18.3923C13.707 18.6483 13.333 18.8143 12.641 18.9043C11.928 18.9973 10.988 18.9993 9.637 18.9993H8.863C7.513 18.9993 6.573 18.9973 5.859 18.9043C5.167 18.8143 4.793 18.6483 4.519 18.3923C4.246 18.1363 4.056 17.7743 3.919 17.0893C3.779 16.3843 3.715 15.4463 3.625 14.0993L3.165 7.19932Z" fill="#4A4A4A"/>
<path d="M6.675 9.00332C6.87284 8.98349 7.07045 9.04304 7.22441 9.16886C7.37836 9.29469 7.47605 9.47649 7.496 9.67432L7.996 14.6743C8.01065 14.8694 7.94849 15.0625 7.82278 15.2124C7.69708 15.3623 7.51778 15.4571 7.32313 15.4767C7.12848 15.4963 6.93389 15.439 6.78086 15.3171C6.62783 15.1953 6.52848 15.0184 6.504 14.8243L6.004 9.82432C5.98417 9.62648 6.04372 9.42887 6.16954 9.27491C6.29537 9.12096 6.47717 9.02327 6.675 9.00332ZM12.496 9.82432C12.5106 9.62924 12.4485 9.43615 12.3228 9.28625C12.1971 9.13635 12.0178 9.0415 11.8231 9.02193C11.6285 9.00236 11.4339 9.05962 11.2809 9.1815C11.1278 9.30338 11.0285 9.48023 11.004 9.67432L10.504 14.6743C10.4894 14.8694 10.5515 15.0625 10.6772 15.2124C10.8029 15.3623 10.9822 15.4571 11.1769 15.4767C11.3715 15.4963 11.5661 15.439 11.7191 15.3171C11.8722 15.1953 11.9715 15.0184 11.996 14.8243L12.496 9.82432Z" fill="#4A4A4A"/>
</svg>
