<svg width="12" height="14" viewBox="0 0 12 14" fill="none" xmlns="http://www.w3.org/2000/svg">
<path d="M6 1.02396C5.69812 1.02386 5.40363 1.12233 5.15712 1.3058C4.91061 1.48927 4.7242 1.74871 4.62357 2.04838C4.57905 2.17434 4.4893 2.27682 4.37366 2.33374C4.25803 2.39066 4.12579 2.39745 4.00545 2.35264C3.8851 2.30784 3.78631 2.21503 3.73036 2.09424C3.67442 1.97344 3.6658 1.83433 3.70638 1.70691C3.87422 1.20768 4.18489 0.775482 4.59564 0.469807C5.00638 0.164132 5.49701 0 6 0C6.50299 0 6.99362 0.164132 7.40436 0.469807C7.81511 0.775482 8.12578 1.20768 8.29362 1.70691C8.3342 1.83433 8.32559 1.97344 8.26964 2.09424C8.21369 2.21503 8.1149 2.30784 7.99455 2.35264C7.87421 2.39745 7.74197 2.39066 7.62634 2.33374C7.51071 2.27682 7.42095 2.17434 7.37643 2.04838C7.27572 1.74877 7.08929 1.48938 6.8428 1.30593C6.5963 1.12247 6.30186 1.02396 6 1.02396ZM0 3.24355C0 3.1077 0.0512546 2.97741 0.142489 2.88136C0.233722 2.7853 0.357462 2.73133 0.486487 2.73133H11.5135C11.6425 2.73133 11.7663 2.7853 11.8575 2.88136C11.9487 2.97741 12 3.1077 12 3.24355C12 3.37939 11.9487 3.50968 11.8575 3.60573C11.7663 3.70179 11.6425 3.75576 11.5135 3.75576H0.486487C0.357462 3.75576 0.233722 3.70179 0.142489 3.60573C0.0512546 3.50968 0 3.37939 0 3.24355ZM2.05297 4.91677C2.04437 4.7812 1.98497 4.65477 1.88784 4.56531C1.7907 4.47585 1.66379 4.43068 1.53503 4.43973C1.40626 4.44879 1.28619 4.51133 1.20122 4.6136C1.11625 4.71587 1.07334 4.84949 1.08195 4.98507L1.38292 9.73293C1.43805 10.6085 1.48281 11.316 1.58789 11.8719C1.69751 12.449 1.88303 12.9312 2.26703 13.3089C2.65038 13.6872 3.12 13.8504 3.67459 13.9262C4.20778 14 4.88108 14 5.71524 14H6.28541C7.11892 14 7.79287 14 8.32605 13.9262C8.88 13.8504 9.34962 13.6872 9.73362 13.3089C10.117 12.9312 10.3025 12.4483 10.4121 11.8719C10.5172 11.316 10.5613 10.6085 10.6171 9.73293L10.9181 4.98507C10.9267 4.84949 10.8838 4.71587 10.7988 4.6136C10.7138 4.51133 10.5937 4.44879 10.465 4.43973C10.3362 4.43068 10.2093 4.47585 10.1122 4.56531C10.015 4.65477 9.95563 4.7812 9.94703 4.91677L9.64865 9.62912C9.59027 10.5491 9.54876 11.1897 9.45795 11.6711C9.36908 12.139 9.24584 12.3862 9.06876 12.561C8.89103 12.7359 8.64843 12.8492 8.19957 12.9107C7.73708 12.9742 7.12735 12.9756 6.25103 12.9756H5.74897C4.8733 12.9756 4.26357 12.9742 3.80043 12.9107C3.35157 12.8492 3.10897 12.7359 2.93124 12.561C2.75416 12.3862 2.63092 12.139 2.54205 11.6711C2.45124 11.1897 2.40973 10.5491 2.35135 9.62912L2.05297 4.91677Z" fill="#4A4A4A"/>
<path d="M4.32973 6.14881C4.45806 6.13527 4.58624 6.17594 4.6861 6.26187C4.78596 6.3478 4.84933 6.47197 4.86227 6.60707L5.18659 10.0218C5.19609 10.1551 5.15578 10.2869 5.07424 10.3893C4.9927 10.4917 4.8764 10.5564 4.75014 10.5698C4.62388 10.5832 4.49766 10.5441 4.39839 10.4608C4.29913 10.3776 4.23469 10.2568 4.21881 10.1243L3.89449 6.70951C3.88163 6.5744 3.92025 6.43944 4.00187 6.3343C4.08348 6.22916 4.20141 6.16244 4.32973 6.14881ZM8.10551 6.70951C8.11501 6.57628 8.07469 6.44442 7.99316 6.34204C7.91162 6.23967 7.79532 6.17489 7.66906 6.16152C7.5428 6.14816 7.41658 6.18727 7.31731 6.2705C7.21805 6.35374 7.15361 6.47452 7.13773 6.60707L6.81341 10.0218C6.80391 10.1551 6.84422 10.2869 6.92576 10.3893C7.0073 10.4917 7.1236 10.5564 7.24986 10.5698C7.37612 10.5832 7.50235 10.5441 7.60161 10.4608C7.70087 10.3776 7.76531 10.2568 7.78119 10.1243L8.10551 6.70951Z" fill="#4A4A4A"/>
</svg>
