<svg width="21" height="21" viewBox="0 0 21 21" fill="none" xmlns="http://www.w3.org/2000/svg">
<path d="M10.1251 14.8907C10.1251 17.4795 12.2237 19.5782 14.8126 19.5782C17.4014 19.5782 19.5001 17.4795 19.5001 14.8907C19.5001 12.3018 17.4014 10.2032 14.8126 10.2032C12.2237 10.2032 10.1251 12.3018 10.1251 14.8907Z" stroke="#4A4A4A" stroke-width="1.5" stroke-miterlimit="10" stroke-linecap="round" stroke-linejoin="round"/>
<path d="M14.8126 19.5782H1.92194C1.27475 19.5782 0.750061 19.0535 0.750061 18.4063V4.6564L4.65615 0.750032H13.6407C14.2879 0.750032 14.8126 1.27472 14.8126 1.92191V10.2032" stroke="#4A4A4A" stroke-width="1.5" stroke-miterlimit="10" stroke-linecap="round" stroke-linejoin="round"/>
<path d="M4.65628 0.750031V4.65628H0.750031L4.65628 0.750031Z" stroke="#4A4A4A" stroke-width="1.5" stroke-miterlimit="10" stroke-linecap="round" stroke-linejoin="round"/>
<path d="M11.7125 11.375H3.48448" stroke="#4A4A4A" stroke-width="1.5" stroke-miterlimit="10" stroke-linecap="round" stroke-linejoin="round"/>
<path d="M12.0782 7.85941H3.48444" stroke="#4A4A4A" stroke-width="1.5" stroke-miterlimit="10" stroke-linecap="round" stroke-linejoin="round"/>
<path d="M10.1251 14.8907H3.48444" stroke="#4A4A4A" stroke-width="1.5" stroke-miterlimit="10" stroke-linecap="round" stroke-linejoin="round"/>
<path d="M14.825 13.5469V15.8907H16.3875" stroke="#4A4A4A" stroke-width="1.5" stroke-miterlimit="10" stroke-linecap="round" stroke-linejoin="round"/>
</svg>
