<svg width="24" height="24" viewBox="0 0 24 24" fill="none" xmlns="http://www.w3.org/2000/svg">
<mask id="mask0_8421_25056" style="mask-type:luminance" maskUnits="userSpaceOnUse" x="1" y="1" width="22" height="22">
<path d="M1 1H23V23H1V1Z" fill="white"/>
</mask>
<g mask="url(#mask0_8421_25056)">
<path d="M12 16.7266C12 19.3154 9.9013 21.4141 7.31247 21.4141C4.72364 21.4141 2.62497 19.3154 2.62497 16.7266C2.62497 14.1378 4.72364 12.0391 7.31247 12.0391C9.9013 12.0391 12 14.1378 12 16.7266Z" stroke="#4A4A4A" stroke-width="1.5" stroke-miterlimit="10" stroke-linecap="round" stroke-linejoin="round"/>
<path d="M7.31247 21.4141H20.2031C20.8503 21.4141 21.375 20.8894 21.375 20.2422V6.49234L17.4689 2.58597H8.48434C7.83716 2.58597 7.31247 3.11066 7.31247 3.75784V12.0391" stroke="#4A4A4A" stroke-width="1.5" stroke-miterlimit="10" stroke-linecap="round" stroke-linejoin="round"/>
<path d="M17.4688 2.58597V6.49222H21.375L17.4688 2.58597Z" stroke="#4A4A4A" stroke-width="1.5" stroke-miterlimit="10" stroke-linecap="round" stroke-linejoin="round"/>
<path d="M10.4125 13.211H18.6406" stroke="#4A4A4A" stroke-width="1.5" stroke-miterlimit="10" stroke-linecap="round" stroke-linejoin="round"/>
<path d="M10.0468 9.69534H18.6406" stroke="#4A4A4A" stroke-width="1.5" stroke-miterlimit="10" stroke-linecap="round" stroke-linejoin="round"/>
<path d="M12 16.7266H18.6406" stroke="#4A4A4A" stroke-width="1.5" stroke-miterlimit="10" stroke-linecap="round" stroke-linejoin="round"/>
<path d="M7.31247 14.3828V16.7266H8.87497" stroke="#4A4A4A" stroke-width="1.5" stroke-miterlimit="10" stroke-linecap="round" stroke-linejoin="round"/>
</g>
</svg>
